<?xml version="1.0" encoding="UTF-8" standalone="no"?>
<!-- Generator: Adobe Illustrator 22.0.1, SVG Export Plug-In . SVG Version: 6.00 Build 0)  -->

<svg
   version="1.1"
   id="Layer_1"
   x="0px"
   y="0px"
   viewBox="0 0 699.62543 812.64819"
   xml:space="preserve"
   sodipodi:docname="G33kCraft-Logo.svg"
   width="699.62543"
   height="812.64819"
   inkscape:version="1.1.1 (3bf5ae0d25, 2021-09-20)"
   xmlns:inkscape="http://www.inkscape.org/namespaces/inkscape"
   xmlns:sodipodi="http://sodipodi.sourceforge.net/DTD/sodipodi-0.dtd"
   xmlns:xlink="http://www.w3.org/1999/xlink"
   xmlns="http://www.w3.org/2000/svg"
   xmlns:svg="http://www.w3.org/2000/svg"><defs
   id="defs105"><inkscape:path-effect
   effect="envelope"
   id="path-effect90425"
   is_visible="true"
   lpeversion="1"
   yy="true"
   xx="false"
   bendpath1="m 297.7215,652.20005 c 65.99943,8.26034 132.90403,10.70072 198.85699,0"
   bendpath2="m 496.57849,652.20005 v 47.99996"
   bendpath3="m 297.7215,700.20001 c 62.80761,15.70476 130.32223,7.72944 198.85699,0"
   bendpath4="m 297.7215,652.20005 v 47.99996"
   bendpath3-nodetypes="cc"
   bendpath1-nodetypes="cc" /><inkscape:path-effect
   effect="envelope"
   id="path-effect33168"
   is_visible="true"
   lpeversion="1"
   yy="true"
   xx="false"
   bendpath1="M 130.13539,431.66865 H 671.529"
   bendpath2="m 671.529,431.66865 v 213.9264"
   bendpath3="m 130.13539,645.59505 c 180.81794,-28.3822 361.23322,-24.4265 541.39361,0"
   bendpath4="m 130.13539,431.66865 v 213.9264"
   bendpath3-nodetypes="cc" /><inkscape:path-effect
   effect="envelope"
   id="path-effect21501"
   is_visible="true"
   lpeversion="1"
   yy="true"
   xx="false"
   bendpath1="m 48.935833,430.62382 c 231.947977,36.44952 466.028657,27.04579 700.929907,0"
   bendpath2="M 749.86574,430.62382 V 634.68333"
   bendpath3="m 48.935833,634.68333 c 229.404987,-40.68784 464.141747,-30.19065 700.929907,0"
   bendpath4="M 48.935833,430.62382 V 634.68333"
   bendpath1-nodetypes="cc"
   bendpath3-nodetypes="cc" /><inkscape:path-effect
   effect="envelope"
   id="path-effect18856"
   is_visible="true"
   lpeversion="1"
   yy="true"
   xx="false"
   bendpath1="m 297.7215,652.20005 c 76.39332,-27.83927 140.59649,-15.42472 198.85699,0"
   bendpath2="m 496.57849,652.20005 v 47.99996"
   bendpath3="m 297.7215,700.20001 c 56.90296,-10.19362 125.8459,-22.06069 198.85699,0"
   bendpath4="m 297.7215,652.20005 v 47.99996"
   bendpath3-nodetypes="cc"
   bendpath1-nodetypes="cc" /><inkscape:path-effect
   effect="envelope"
   id="path-effect17983"
   is_visible="true"
   lpeversion="1"
   yy="true"
   xx="true"
   bendpath1="m 102.18131,338.83881 c 37.9251,17.14102 72.9684,16.16969 106.19136,0"
   bendpath2="m 208.37267,338.83881 v 35.99628"
   bendpath3="m 102.18131,374.83509 c 34.52016,-4.26338 69.77951,-3.48981 106.19136,0"
   bendpath4="m 102.18131,338.83881 v 35.99628"
   bendpath1-nodetypes="cc"
   bendpath3-nodetypes="cc" /><inkscape:path-effect
   effect="perspective-envelope"
   up_left_point="102.18131,338.83881"
   up_right_point="208.37267,338.83881"
   down_left_point="102.18131,374.83509"
   down_right_point="208.37267,374.83509"
   id="path-effect17368"
   is_visible="true"
   lpeversion="1"
   deform_type="envelope_deformation"
   horizontal_mirror="false"
   vertical_mirror="true"
   overflow_perspective="false" /><rect
   x="102.08623"
   y="335.74408"
   width="522.94855"
   height="97.913773"
   id="rect4493" />
	
	
	

		
		
	
		
		
	
		
		
	
			
			
		
			
			
			
		
			
		
			
			
			
			
		
				
				
				
			
				
				
				
				
			
				
				
				
			
				
				
			
				
				
			
					
					
				
						
						
					
							
						
							
						<rect
   x="102.08623"
   y="335.74408"
   width="522.94855"
   height="97.913773"
   id="rect16503" /></defs><sodipodi:namedview
   id="namedview103"
   pagecolor="#505050"
   bordercolor="#ffffff"
   borderopacity="1"
   inkscape:pageshadow="0"
   inkscape:pageopacity="0"
   inkscape:pagecheckerboard="1"
   showgrid="false"
   inkscape:zoom="1.4142136"
   inkscape:cx="354.61405"
   inkscape:cy="500.6316"
   inkscape:window-width="3840"
   inkscape:window-height="2014"
   inkscape:window-x="-12"
   inkscape:window-y="-12"
   inkscape:window-maximized="1"
   inkscape:current-layer="Layer_1"
   fit-margin-top="0"
   fit-margin-left="0"
   fit-margin-right="0"
   fit-margin-bottom="0"><inkscape:grid
     type="xygrid"
     id="grid33787"
     originx="-56.582667"
     originy="-7.6785943" /></sodipodi:namedview>
<style
   type="text/css"
   id="style2">
	.st0{display:none;}
	.st1{display:inline;fill:#231F20;}
	.st2{display:inline;fill:#FFF200;}
	.st3{display:inline;}
	.st4{fill:#E21E34;}
	.st5{fill:#171717;}
	.st6{fill:#FFFFFF;}
	.st7{fill:#E8E8E8;}
	.st8{fill:#211E1F;}
	.st9{fill:#DF1E33;}
	.st10{fill:#161717;}
	.st11{fill:#E21E33;}
</style>
<image
   style="display:none;overflow:visible"
   width="583"
   height="672"
   xlink:href="PngItem_6202152.png"
   id="image4"
   x="1171.1184"
   y="-838.78882">
</image>
<image
   style="display:none;overflow:visible"
   width="583"
   height="672"
   xlink:href="PngItem_6202152.png"
   id="image6"
   x="514.11835"
   y="-838.78882">
</image>
<g
   class="st0"
   id="g12"
   transform="translate(-56.582667,-7.6785943)">
	<path
   class="st1"
   d="m 1778.9,-238.8 c -2.4,0 -4,-0.2 -4.3,-0.3 h -0.3 l -0.3,-0.1 c -80.5,-18.2 -165.8,-27.4 -253.5,-27.4 -134.4,0 -228.4,22.1 -229.3,22.3 h -0.2 l -0.6,0.1 c -2.9,0.6 -6,0.9 -9,0.9 -3.2,0 -6.3,-0.3 -9.4,-0.9 l -1.6,-0.3 -28.7,-22.6 c -0.5,-0.4 -1,-0.8 -1.4,-1.3 -2.6,-2.6 -4,-6.1 -4,-9.8 v -163.5 c 0,-5.4 2.2,-10.7 6.2,-14.5 l 0.2,-0.2 23.6,-19.5 c 3.1,-2.6 7.1,-4 11.1,-4 h 6.6 c 0.9,0 1.9,0.1 2.8,0.2 l 80.3,13.2 c 4.5,0.7 8.5,2.8 11.8,5.9 l 24,22.9 c 2.6,2.5 4.2,5.8 4.6,9.3 0.6,-0.2 1.3,-0.4 1.9,-0.6 1.7,-0.4 3.5,-0.7 5.3,-0.7 h 0.2 c 0.7,0 74.7,2.4 133.6,2.4 0,0 0,0 0,0 34.3,0 56.8,-0.8 66.7,-2.4 l 0.6,-0.1 h 0.6 c 0.7,0 1.4,0.1 2.1,0.2 l 0.1,-9.8 c 0.1,-11.5 8.8,-21.4 20.2,-22.9 l 38.9,-5.1 c 1,-0.1 2,-0.2 2.9,-0.2 6.4,0 12.4,2.5 16.9,7.1 2.4,2.5 4.2,5.4 5.3,8.5 1.1,-1.7 2.2,-3.5 3.4,-5.3 9,-14.4 18,-17 20,-17.4 l 45.6,-9.9 c 1.8,-0.4 3.6,-0.6 5.4,-0.6 8.9,0 17.1,4.9 21.5,12.8 4.4,8 4.2,17.3 -0.6,25.1 -17.9,28.8 -39.2,57.9 -46.7,68 17.3,30.2 49.9,105.1 51.3,108.4 l 0.3,0.7 0.1,0.7 c 1.9,9.1 0.5,16.4 -3.9,21.9 -3.9,5.8 -11.3,8.8 -20.3,8.8 z"
   id="path8" />
	<path
   class="st2"
   d="m 1777.7,-477.8 c 13.3,0 22.5,15 14.9,27.2 -22.2,35.6 -49.2,71.3 -49.2,71.3 16.4,26.6 53.3,111.7 53.3,111.7 4,19.6 -10.9,21.9 -17.8,21.9 -2,0 -3.3,-0.2 -3.3,-0.2 -92.3,-20.9 -180.1,-27.6 -255,-27.6 -137,0 -231,22.5 -231,22.5 l -0.4,0.1 c -2.5,0.5 -5.1,0.7 -7.6,0.7 -2.7,0 -5.4,-0.3 -8,-0.8 l -27.4,-21.5 c -0.3,-0.2 -0.5,-0.4 -0.7,-0.6 -1.3,-1.3 -2,-3.1 -2,-4.9 v -2.1 -161.3 c 0,-3.6 1.5,-7 4,-9.5 l 23.4,-19.3 c 1.9,-1.6 4.2,-2.4 6.7,-2.4 h 6.6 c 0.6,0 1.1,0 1.7,0.1 l 80.2,13.2 c 3,0.5 5.9,1.9 8.1,4 l 0.5,0.5 23.5,22.4 c 1.6,1.6 2.6,3.7 2.6,6 v 0.5 13.8 l 1.2,-2.3 c 1.9,-3.7 5.3,-6.5 9.4,-7.5 1.2,-0.3 2.4,-0.5 3.6,-0.5 0,0 74.1,2.4 133.8,2.4 29.9,0 56.2,-0.6 67.8,-2.4 0,0 8.8,0.3 9.3,5 l 0.2,-21.6 c 0.1,-8.1 6.1,-14.9 14.1,-16 l 38.9,-5.1 c 0.7,-0.1 1.4,-0.1 2,-0.1 9.2,0 16.8,7.6 16.6,17.1 l -0.3,12.5 c 0,0 7.3,-9.8 15.3,-22.5 8,-12.7 15.5,-14.3 15.5,-14.3 l 45.7,-9.9 c 1.2,-0.4 2.5,-0.5 3.8,-0.5 m 0,-14 c -2.3,0 -4.6,0.3 -6.9,0.7 l -45.6,9.9 c -3.1,0.7 -12.4,3.7 -21.8,16.6 -0.1,-0.2 -0.3,-0.3 -0.4,-0.5 -5.7,-5.9 -13.7,-9.2 -21.9,-9.2 -1.2,0 -2.5,0.1 -3.7,0.2 h -0.1 -0.1 l -38.9,5.1 c -14.9,2 -26.2,14.8 -26.3,29.8 v 3.2 c -8,1 -25.4,1.9 -63.2,1.9 -58.8,0 -132.6,-2.4 -133.4,-2.4 h -0.2 -0.2 c -0.8,0 -1.6,0 -2.5,0.1 -1.1,-2.3 -2.7,-4.4 -4.6,-6.2 l -23.5,-22.4 -0.5,-0.5 c -4.3,-4.1 -9.6,-6.8 -15.5,-7.7 l -80.2,-13.2 c -1.3,-0.2 -2.7,-0.3 -4,-0.3 h -6.6 c -5.7,0 -11.2,2 -15.6,5.6 l -23.4,19.3 -0.4,0.3 -0.4,0.4 c -5.3,5.1 -8.3,12.2 -8.3,19.5 v 161.3 2.1 c 0,5.5 2.1,10.7 5.9,14.7 0.7,0.7 1.4,1.3 2.1,1.9 l 27.4,21.5 2.6,2.1 3.3,0.7 c 3.6,0.7 7.2,1.1 10.8,1.1 3.4,0 6.9,-0.3 10.3,-1 l 0.4,-0.1 0.3,-0.1 0.3,-0.1 c 0.9,-0.2 94.2,-22.1 227.7,-22.1 87.2,0 171.9,9.2 252,27.3 l 0.6,0.1 0.6,0.1 c 0.5,0.1 2.5,0.3 5.3,0.3 11.2,0 20.5,-3.9 26.2,-11 4,-4.9 8.2,-13.7 5.3,-27.7 l -0.3,-1.4 -0.6,-1.3 c -1.4,-3.2 -31.5,-72.4 -49.4,-105.1 9.2,-12.4 27.9,-38.5 44.3,-64.9 6.2,-10 6.5,-22 0.8,-32.2 -5.7,-10.1 -16.3,-16.4 -27.7,-16.4 z"
   id="path10" />
</g>
<g
   class="st0"
   id="g20"
   transform="translate(-56.582667,-7.6785943)">
	<path
   class="st1"
   d="m 1290,-416.1 -38.5,-77.1 v -35.6 l 60.7,27.9 -31.1,-95.4 140.5,-102.8 c -1.5,-7.1 -2.3,-23.1 12.1,-42.6 -1.1,-7.2 -2,-28.3 20.3,-48.5 12.5,-11.2 9,-19.4 8.6,-20.2 l -6.5,-10 11.8,2.6 c 1.2,0.2 28.6,6.4 49.9,59.8 0.3,0 0.6,0 1,0 16.6,0 70.6,3.2 78,43.8 l 161.7,116.9 -30.3,96.5 60,-28 v 36.6 l -66.2,76.1 z"
   id="path14" />
	<g
   class="st3"
   id="g18">
		<path
   class="st4"
   d="m 1466.8,-812.9 c 0,0 26.8,5.5 47.5,60 0,0 1.6,-0.1 4.3,-0.1 15.6,0 68.1,2.9 73.4,41.6 l 160.5,116 -32.7,103.9 63.2,-29.5 v 26.8 l -63.5,73 H 1293 l -36.6,-73.3 V -521 l 64,29.4 -33.5,-102.8 140.3,-102.7 c 0,0 -7.7,-18.5 11.7,-43.3 0,0 -6.7,-23.5 18.3,-46 16.4,-14.8 9.6,-26.5 9.6,-26.5 m -19.9,-14.3 11.1,19 c 0.8,2.2 0.1,7.5 -7.4,14.3 -22.2,20 -23.2,41.2 -22.2,50.9 -9.4,13.4 -12,25.1 -12.5,32.9 -0.2,3.4 -0.1,6.3 0.2,8.8 l -135.1,98.8 -5.9,4.3 2.2,6.9 26.5,81.1 -43.2,-19.8 -14.2,-6.5 v 15.6 26.6 2.4 l 1.1,2.1 36.6,73.3 2.8,5.5 h 6.2 426.5 4.6 l 3,-3.4 63.5,-73 2.5,-2.8 v -3.7 -26.8 -15.7 l -14.2,6.6 -42.6,19.9 25.9,-82.2 2.2,-6.9 -5.8,-4.2 -157.2,-113.6 c -4.1,-18 -17.3,-31.5 -38.6,-39 -15.5,-5.5 -31.8,-6.7 -41.5,-6.8 -21.7,-52 -49.1,-59.1 -52.2,-59.7 z"
   id="path16" />
	</g>
</g>

<g
   id="g92940"><path
     id="path92075"
     style="color:#000000;-inkscape-font-specification:'Candara, Bold';fill:#0066ff;stroke:none;stroke-width:16.337;stroke-linecap:square;stroke-linejoin:round;-inkscape-stroke:none;paint-order:stroke markers fill"
     d="m 487.76156,6.3806777 c -1.23457,0.092464 -2.48014,0.3053156 -3.72255,0.6381704 l -33.68449,9.0193949 c -12.48048,5.454994 -12.81379,12.940849 -15.7551,22.038161 -1.10849,3.110688 -2.90853,7.597212 -5.00959,12.688836 -0.79248,-3.406073 -1.61035,-6.513699 -2.39314,-10.04046 V 40.71401 C 425.09995,31.274598 414.68798,25.59999 404.47811,28.333614 h -0.008 l -25.1118,6.732636 -6.75387,1.808131 c -10.28588,2.755548 -16.48058,13.001451 -13.44396,22.261298 v 0.01077 c 4.14942,12.646404 8.70992,28.189306 13.45458,45.150131 -17.42853,-26.567643 -38.723,-30.432604 -71.29623,-21.953916 -16.77135,4.49387 -28.38652,7.927766 -37.4709,13.848165 -6.01572,3.921761 -9.21734,10.639071 -8.18977,17.198531 v 0.0108 c 0.005,0.0485 0.0185,0.0906 0.0369,0.13823 0,0.007 0,0.0139 0,0.0215 l 1.55287,9.90218 c -18.68683,-17.96061 -38.25055,-18.8575 -64.88509,-11.92467 -16.77137,4.49388 -28.3763,7.92806 -37.46022,13.84817 -6.0191,3.92191 -9.22638,10.64105 -8.20042,17.19852 v 0.0108 c 0.005,0.0485 0.0223,0.0906 0.0323,0.13824 -1e-5,0.007 -1e-5,0.0138 0,0.0215 l 3.06319,19.50655 v 0.0108 c 0.45039,2.86169 1.66823,5.3819 3.40355,7.47716 -2.53442,-0.34601 -5.19131,-0.2227 -7.84945,0.48924 l -31.9933,8.57268 c -11.00538,2.9486 -17.140739,14.42406 -12.78453,23.92052 3.78332,8.2443 6.50605,15.63243 8.21103,21.9954 0.62432,2.32989 1.3405,4.61366 2.08466,6.87091 -8.42799,1.60595 -13.570171,0.52332 -19.953259,-3.61627 -8.208697,-5.39178 -12.72549,-11.53926 -15.39039,-21.48486 -2.667069,-9.95366 -1.897057,-16.96433 1.765599,-24.34597 0.0054,-0.0131 0.004,0.002 0.01077,-0.0108 0.01077,-0.0177 0.02231,-0.0354 0.03231,-0.0538 3.052302,-6.20561 6.995773,-9.60248 19.50655,-12.95474 7.41787,-1.98761 16.91539,-3.30589 28.28132,-3.61626 0.0354,-0.003 0.0715,-0.007 0.10616,-0.0108 11.00771,-0.36078 19.85399,-9.66541 18.74073,-19.76183 -0.04,-0.36308 -0.10747,-0.72209 -0.20201,-1.07423 l 0.13831,0.52116 -2.74407,-24.8565 c -0.97525,-8.77063 -9.14295,-15.19181 -18.71349,-14.73097 -0.007,-0.004 -0.0146,-0.007 -0.0223,-0.0108 -11.61245,0.57471 -23.961167,2.7458 -37.173062,6.28592 l -0.01077,-0.0108 c -29.63322,7.94018 -53.278907,23.76883 -66.762656,46.7349 -0.0071,0.0138 -0.01462,0.0285 -0.02231,0.0423 -12.7663913,21.87348 -16.2390349,45.86915 -9.976627,69.24084 5.970193,22.28104 19.991155,40.43196 40.619142,52.02102 0.02692,0.0169 0.05615,0.0269 0.08508,0.0423 0.02692,0.0138 0.06,0.0285 0.08508,0.0423 l 0.09585,0.0539 c 0.01077,0.005 0.01077,0.0169 0.02231,0.0215 h 0.01077 c 0.03231,0.0177 0.07462,0.0362 0.127388,0.0639 0.01769,0.004 0.03616,0.007 0.05462,0.0108 21.93249,12.00277 49.23751,12.89979 78.366615,5.09467 13.7429,-3.68241 28.76071,-10.13577 45.56495,-19.0173 -2.53578,4.53294 -3.09124,9.93506 -0.81897,14.80541 v 0.0108 l 7.56224,16.20937 c 0.0146,0.0108 0.0285,0.0215 0.0438,0.0323 0.0323,0.0692 0.0431,0.144 0.0746,0.2127 3.7158,7.95206 13.58047,11.78502 22.6761,8.8173 31.56217,-10.29486 56.56197,-24.83774 66.13402,-36.41349 9.57204,-11.57577 11.3999,-14.13149 13.08576,-16.72546 l 6.94533,14.87987 c 0.008,0.0108 0.0154,0.0215 0.0385,0.0323 0.0385,0.0692 0.0539,0.14354 0.0831,0.2127 3.71625,7.95127 13.58089,11.78485 22.67605,8.8173 31.56228,-10.29485 56.56208,-24.82709 73.12304,-44.76722 0.005,-0.0138 0.0154,-0.0285 0.0154,-0.0423 h 0.008 c 0.0539,-0.0669 0.10693,-0.134 0.15924,-0.20216 0.008,-0.0169 0.0385,-0.0369 0.0462,-0.0538 0.005,-0.01 0.0154,-0.0108 0.0154,-0.0215 0.008,-0.0131 0.008,-0.0292 0.0154,-0.0423 0.0308,-0.0338 0.0539,-0.0623 0.0831,-0.0957 0.0154,-0.0285 0.0462,-0.0562 0.0615,-0.0851 0.0462,-0.0669 0.0831,-0.12069 0.1177,-0.17023 0.004,-0.007 0.005,-0.0139 0.008,-0.0215 7.65343,-9.38647 12.86248,-19.61069 15.26278,-30.07882 4.42542,3.3452 10.52981,4.74319 16.60296,3.11637 l 31.88406,-8.54104 c 10.12918,-2.71545 16.30473,-12.71171 13.53973,-21.89967 v -0.0108 c -2.44468,-8.08586 -3.93133,-13.46958 -5.92438,-20.28299 7.11018,6.18828 12.88541,11.40433 16.49666,14.98623 2.05297,2.03648 3.59032,3.7352 6.85102,8.25237 3.64356,4.28317 11.07452,7.69373 19.10165,5.5433 l 36.96072,-9.89937 h 0.008 v -0.0108 c 9.9328,-2.66766 16.10211,-12.34281 13.66736,-21.43169 -1.41304,-5.27342 -4.7762,-8.6399 -6.02001,-10.02981 -2.00043,-2.23536 -4.40149,-4.61763 -7.34957,-7.38144 -5.88031,-5.51287 -14.06767,-12.63398 -24.72887,-21.56995 -0.0539,-0.0485 -0.0923,-0.0795 -0.14923,-0.1277 h -0.008 c -11.72099,-9.83777 -21.76379,-17.56889 -30.51486,-23.335531 -1.40096,-0.923178 -2.71607,-1.701282 -4.04172,-2.499472 4.20357,-6.656988 8.65445,-14.266153 13.90136,-24.197079 l 0.008,-0.01077 c 0.0538,-0.109387 0.10154,-0.177389 0.16,-0.287238 l 0.008,-0.01077 v -0.01077 c 5.00143,-9.48446 8.74399,-16.969323 11.33806,-22.856921 1.28803,-2.923306 2.33783,-5.523604 3.13762,-8.072778 0.32539,-1.038881 2.3159,-6.317202 0.73386,-12.220846 -2.13221,-7.955483 -10.2048,-13.0052517 -18.84718,-12.3591196 z"
     sodipodi:nodetypes="cccccccccccccccccccccccccccccsccccccccccccccccsccccccccccccsccccccccccccccccccccccsccccccccsccccccccccccccccscccccccc" /><g
     id="g89839"
     transform="matrix(7.6925064,0,0,7.6925064,-5.6569046,160.24371)"><path
       id="path77412"
       style="color:#000000;fill:#ffffff;stroke-width:3;stroke-linecap:square;stroke-linejoin:round;-inkscape-stroke:none;paint-order:fill markers stroke"
       d="m 51.291016,4.3789062 c -21.901531,2e-7 -39.683594,17.8411508 -39.683594,39.8046878 0,21.963536 17.782063,39.804687 39.683594,39.804687 21.901531,10e-7 39.685547,-17.841151 39.685546,-39.804687 0,-21.963537 -17.784014,-39.8046884 -39.685546,-39.8046878 z" /><path
       id="path73870"
       style="fill:#0066ff;stroke-width:43.1656;stroke-linecap:square;stroke-linejoin:round;paint-order:fill markers stroke"
       d="m 89.475609,44.183598 c 0,21.155472 -17.095455,38.305371 -38.183766,38.30537 -21.088311,0 -38.183765,-17.149898 -38.183765,-38.30537 0,-21.155472 17.095454,-38.3053708 38.183765,-38.3053708 21.088312,-6e-7 38.183766,17.1498988 38.183766,38.3053708 z"
       sodipodi:nodetypes="sssss" /><path
       id="path77419"
       style="fill:none;stroke:#ff6600;stroke-width:1.01705;stroke-linecap:butt;stroke-linejoin:round;stroke-miterlimit:4;stroke-dasharray:none;stroke-opacity:1;paint-order:markers stroke fill"
       d="m 89.780235,44.183598 c 0,21.324249 -17.231841,38.610965 -38.488392,38.610965 -21.256551,0 -38.488391,-17.286716 -38.488391,-38.610965 0,-21.324247 17.23184,-38.6109661 38.488391,-38.6109661 21.256552,-1.2e-6 38.488392,17.2867191 38.488392,38.6109661 z"
       sodipodi:nodetypes="sssss" /><path
       id="path76434"
       style="fill:none;fill-opacity:1;stroke:#000000;stroke-width:1.01918;stroke-linecap:square;stroke-linejoin:round;stroke-miterlimit:4;stroke-dasharray:none;stroke-opacity:1;paint-order:fill markers stroke"
       d="m 90.208104,44.183598 c 0,21.561306 -17.423404,39.040199 -38.916261,39.040198 -21.492857,0 -38.91626,-17.478892 -38.91626,-39.040198 0,-21.561306 17.423403,-39.0401985 38.91626,-39.0401985 21.492858,-7e-7 38.916261,17.4788925 38.916261,39.0401985 z"
       sodipodi:nodetypes="sssss" /></g><g
     id="g89431"
     transform="matrix(0.6981368,-0.18706522,0.17112496,0.63864696,-72.578233,-6.6209889)"><path
       style="color:#000000;-inkscape-font-specification:'Candara, Bold';fill:#ff6600;stroke-linecap:square;stroke-linejoin:round;-inkscape-stroke:none;paint-order:stroke markers fill"
       d="m 168.5,246.71289 c -39.93843,0 -73.497379,12.71371 -97.298828,38.35547 a 5.0005,5.0005 0 0 0 -0.02734,0.0273 c -23.019756,24.92814 -34.996094,55.43935 -34.996094,89.24414 0,32.18432 11.045725,60.93485 32.472657,83.81446 a 5.0005,5.0005 0 0 0 0.09961,0.10351 c 0.02332,0.0235 0.04676,0.047 0.07031,0.0703 l -0.115234,-0.11914 c 22.3624,23.61873 55.041779,34.85547 94.777339,34.85547 19.04924,0 41.5235,-3.54615 67.93945,-10.3164 6.45309,-1.65182 10.90402,-7.63877 10.625,-14.29493 v -0.002 c -0.85846,-20.49611 -1.28515,-36.75994 -1.28515,-48.61914 0,-16.59377 0.42869,-33.07703 1.2793,-49.45117 0.4165,-8.03257 -6.08402,-14.8779 -14.12696,-14.87891 h -45.81445 c -8.59693,-2.3e-4 -15.2988,7.82098 -13.97852,16.31641 a 5.0005,5.0005 0 0 0 0,0.002 c 2.1781,14.00209 3.23243,26.42728 3.23243,37.16406 0,7.52842 0.50635,15.09412 1.19531,22.66211 -2.06057,0.16373 -4.38701,0.42774 -5.99219,0.42774 -19.00294,0 -31.05173,-5.51177 -41.20703,-17.83594 -10.56998,-12.9577 -15.55469,-27.12473 -15.55469,-44.91601 0,-17.61411 4.53582,-30.9083 13.70313,-42.2793 a 5.0005,5.0005 0 0 0 0.0254,-0.0312 c 0.003,-0.004 0.005,-0.008 0.008,-0.0117 0.004,-0.004 0.008,-0.007 0.0117,-0.0117 8.40735,-10.5015 19.95981,-15.72461 39.93945,-15.72461 11.93692,0 26.02531,1.98755 42.07813,6.17969 a 5.0005,5.0005 0 0 0 0.0312,0.004 c 8.10876,2.09698 16.38616,-3.43027 17.54882,-11.72852 a 5.0005,5.0005 0 0 0 0,-0.002 l 5.3418,-38.20703 a 5.0005,5.0005 0 0 0 0,-0.002 c 1.00542,-7.19499 -3.67763,-14.04054 -10.74414,-15.71679 a 5.0005,5.0005 0 0 0 -0.0137,-0.008 C 203.11124,248.33764 186.72213,246.71289 168.5,246.71289 Z m 410.87305,2.91406 c -8.03569,-4.3e-4 -14.53372,6.83102 -14.12891,14.85742 1.38601,27.40014 2.08789,60.70227 2.08789,99.81836 0,40.74199 -0.69971,77.29952 -2.0918,109.63868 -0.34243,7.98781 6.13792,14.75134 14.13282,14.75195 h 45.65234 c 7.91769,-8.9e-4 14.36587,-6.63341 14.13867,-14.54883 a 5.0005,5.0005 0 0 0 0,-0.004 c -0.8338,-28.65235 -1.24442,-51.49797 -1.46484,-71.72656 5.475,6.84278 11.93522,15.86142 19.67578,28.28906 8.7e-4,10e-4 10e-4,0.003 0.002,0.004 a 5.0005,5.0005 0 0 0 0.004,0.01 c 9.02381,14.47012 15.74884,25.8843 20.03906,33.93164 2.14119,4.01631 3.69392,7.25934 4.53906,9.30468 0.33947,0.82155 0.56866,1.55399 0.69532,2.01368 0.0657,0.23843 0.10655,0.4059 0.12304,0.47851 0.004,0.0175 -8e-5,0.002 0.0176,0.0859 0.0139,0.0658 0.0254,0.11759 0.0293,0.13477 0.006,0.0286 0.0162,0.0804 0.041,0.18554 a 5.0005,5.0005 0 0 0 0.004,0.0137 c 0.16317,0.68452 0.0997,0.36716 0.13281,0.48047 0.0331,0.11331 0.12297,0.40796 0.12305,0.40821 a 5.0005,5.0005 0 0 0 0.0527,0.14648 c 3e-5,8e-5 0.10681,0.27088 0.17774,0.44727 l -0.15235,-0.48633 a 5.0005,5.0005 0 0 0 0.0391,0.0371 c 1.52581,6.03023 6.86944,10.79457 13.5,10.79492 h 52.9375 0.002 a 5.0005,5.0005 0 0 0 0.004,0 c 7.76171,-0.005 14.1363,-6.38209 14.13672,-14.14453 0,-5.23622 -2.00804,-9.11818 -3.36915,-12.06055 -1.65115,-3.56944 -3.86982,-7.73777 -6.73242,-12.77539 -5.7285,-10.08104 -14.07163,-23.63224 -25.14648,-40.89648 l 0.13281,0.21875 c -0.0739,-0.12939 -0.0836,-0.13376 -0.13672,-0.21289 a 5.0005,5.0005 0 0 0 -0.006,-0.0234 c -11.99484,-18.73145 -22.45892,-33.64864 -31.65039,-44.95899 -4.14271,-5.09773 -7.96801,-9.22312 -11.74023,-12.91211 9.51106,-8.80899 20.72463,-20.87857 34.98242,-37.70117 l -0.2793,0.30274 -1.46289,1.46289 h -2.06836 a 5.0005,5.0005 0 0 0 3.81055,-1.76563 5.0005,5.0005 0 0 0 0.004,-0.002 c 9.98836,-11.78954 17.53854,-21.13349 22.82617,-28.32813 2.63791,-3.58927 4.73826,-6.65715 6.38867,-9.49804 1.16471,-2.00484 3.76367,-6.06195 3.76367,-11.62696 -4e-4,-7.7647 -6.37983,-14.14411 -14.14453,-14.14453 h -48.24219 c -6.30338,3.5e-4 -11.51719,4.27471 -13.33789,9.8711 l 0.0332,-0.10157 c -0.23769,0.68034 -0.46311,1.0727 0.0625,-0.0391 -0.58647,1.24636 -0.95132,2.62115 -0.65625,1.72461 -0.14268,0.43349 -0.29402,0.84613 -0.48829,1.23242 -0.80451,1.59975 -2.39345,4.36914 -4.57617,7.82617 -4.37469,6.92871 -11.26244,16.93029 -20.49804,29.68946 -9.6e-4,10e-4 -10e-4,0.003 -0.002,0.004 a 5.0005,5.0005 0 0 0 -0.004,0.002 c -5.08299,7.0248 -9.5277,12.88577 -13.49024,17.90429 0.24126,-17.13982 0.62078,-34.7087 1.36328,-53.40625 a 5.0005,5.0005 0 0 0 0,-0.004 c 0.31529,-7.96915 -6.15319,-14.70143 -14.1289,-14.70313 a 5.0005,5.0005 0 0 0 -0.002,0 h -0.002 -45.65039 a 5.0005,5.0005 0 0 0 -0.002,0 z M 168.5,256.71289 c 17.62504,0 33.25885,1.582 46.92773,4.80469 6.1e-4,1.4e-4 0.001,-1.4e-4 0.002,0 2.02918,0.48016 3.43888,2.54294 3.15039,4.60742 a 5.0005,5.0005 0 0 0 -0.0488,0.69141 v -0.34571 l -5.29297,37.86328 c -0.3316,2.35818 -2.84601,4.03444 -5.15039,3.4336 -16.68561,-4.35739 -31.56513,-6.50391 -44.60547,-6.50391 -21.86902,0 -37.435,6.58429 -47.75976,19.49024 a 5.0005,5.0005 0 0 0 -0.01,0.0117 c -5.7e-4,7.2e-4 -10e-4,0.001 -0.002,0.002 -10.59167,13.13878 -15.916018,29.16512 -15.916018,48.55469 0,19.73434 5.911808,36.66445 17.820308,51.25585 a 5.0005,5.0005 0 0 0 0.16211,0.17969 c 11.8105,14.23588 27.75915,21.31641 48.7793,21.31641 3.59586,0 7.67838,-0.35869 11.95898,-0.83789 a 5.0005,5.0005 0 0 0 4.41602,-5.49024 c -0.94873,-9.06165 -1.57812,-18.00599 -1.57812,-26.76172 0,-11.38752 -1.10934,-24.29246 -3.34961,-38.69531 -2.1e-4,-10e-4 2.1e-4,-0.003 0,-0.004 a 5.0005,5.0005 0 0 0 0,-0.002 c -0.37411,-2.40722 1.6591,-4.78131 4.0957,-4.78125 h 45.81445 c 2.2904,2.9e-4 4.25725,2.0725 4.13867,4.35938 -0.85963,16.54789 -1.29101,33.20505 -1.29101,49.9707 0,12.09832 0.43098,28.45942 1.29297,49.03906 a 5.0005,5.0005 0 0 0 0,0.002 c 0.0807,1.91822 -1.25234,3.71114 -3.11328,4.1875 a 5.0005,5.0005 0 0 0 -0.002,0 c -25.90426,6.63921 -47.65756,10.0039 -65.45703,10.0039 -37.86992,0 -67.396409,-10.48095 -87.515623,-31.73047 a 5.0005,5.0005 0 0 0 -0.01563,-0.0156 l -0.0039,-0.004 c -19.7586,-21.10025 -29.769283,-47.05239 -29.769283,-76.97447 0,-31.4682 10.891741,-59.22779 32.341797,-82.45703 6.32e-4,-6.8e-4 0.0013,-0.001 0.002,-0.002 a 5.0005,5.0005 0 0 0 0.0078,-0.008 C 100.28314,268.43722 130.65613,256.71289 168.5,256.71289 Z m 411.00195,2.91211 -0.0625,0.002 h 45.58594 0.002 c 2.27366,4.9e-4 4.22857,2.0364 4.13868,4.3086 -0.95084,23.94378 -1.40955,46.35126 -1.5879,67.875 a 5.0005,5.0005 0 0 0 8.7129,3.39062 c 5.8087,-6.43876 13.54362,-16.29973 23.09375,-29.49805 9.5e-4,-10e-4 10e-4,-0.003 0.002,-0.004 a 5.0005,5.0005 0 0 0 0.004,-0.002 c 9.30698,-12.85767 16.27223,-22.95779 20.85547,-30.2168 0.84917,-1.34493 1.18868,-2.06757 1.8711,-3.21094 a 5.0005,5.0005 0 0 0 0.27343,0.35938 5.0005,5.0005 0 0 0 0.39258,0.13476 l -0.006,0.0137 c -0.0231,-0.008 0.0966,0.0349 0.20118,0.0703 a 5.0005,5.0005 0 0 0 0.0469,-0.002 5.0005,5.0005 0 0 0 0.11914,0.041 c 0.1386,0.0355 0.27602,0.0681 0.41602,0.0976 l -0.0742,-0.15234 a 5.0005,5.0005 0 0 0 5.57031,-2.48437 c -0.0467,0.0934 -0.0429,0.0858 0.01,-0.0195 a 5.0005,5.0005 0 0 0 -2.25977,-6.57812 5.0005,5.0005 0 0 0 -0.0449,-0.0898 c -0.20874,-0.1383 -0.14145,-0.0791 -0.11719,-0.0488 -0.0223,-0.0414 -0.0306,-0.0608 -0.0508,-0.10156 0.39201,-0.88563 0.39546,-1.10417 0.29492,-0.81641 a 5.0005,5.0005 0 0 0 0.0352,-0.10156 c 0.56614,-1.74017 2.07438,-2.96475 3.82812,-2.96485 h 48.24219 c 2.21713,1.2e-4 4.14442,1.92743 4.14453,4.14453 0,2.54449 -1.07333,4.30242 -2.41015,6.60352 -1.36471,2.34909 -3.2775,5.16631 -5.80079,8.59961 -5.03843,6.85556 -12.47868,16.07786 -22.37695,27.76172 a 5.0005,5.0005 0 0 0 -0.0234,0.0254 c -16.07744,18.96959 -28.29435,31.94656 -37.89062,40.30664 a 5.0005,5.0005 0 0 0 0.0176,7.55469 c 4.38972,3.79014 9.11366,8.89974 14.49804,15.52539 8.81782,10.85056 19.12085,25.50751 30.99024,44.04297 3.2e-4,5e-4 -3.2e-4,0.001 0,0.002 a 5.0005,5.0005 0 0 0 0.0137,0.0215 c 11.02271,17.18296 19.30015,30.63913 24.86914,40.43946 2.78634,4.90341 4.89083,8.87541 6.35156,12.0332 1.47098,3.17989 2.44532,5.11862 2.44532,7.86133 -1.2e-4,2.21619 -1.92565,4.1432 -4.14258,4.14453 h -52.9375 c -1.86897,-1e-4 -3.43157,-1.39214 -3.87305,-3.32422 a 5.0005,5.0005 0 0 0 -0.0156,-0.0508 5.0005,5.0005 0 0 0 0.004,-0.0137 c -0.12605,-0.59695 -0.13862,-0.70422 -0.10547,-0.38672 a 5.0005,5.0005 0 0 0 -0.0488,-0.0957 l 0.0254,-0.006 c -0.0292,-0.0913 -0.041,-0.12807 -0.0742,-0.23243 a 5.0005,5.0005 0 0 0 0.0371,-0.1289 c 0.006,-0.42615 0.0117,-0.86133 0.0117,-0.86133 l -0.2246,0.22266 -0.0781,-0.0859 c -0.0363,-0.1431 -0.0569,-0.24362 -0.10547,-0.41992 -0.21764,-0.78991 -0.56404,-1.89579 -1.09375,-3.17774 -1.06008,-2.56552 -2.71408,-5.9803 -4.95703,-10.1875 -4.48176,-8.40661 -11.28496,-19.93911 -20.375,-34.51562 -10e-4,-0.002 -0.003,-0.004 -0.004,-0.006 a 5.0005,5.0005 0 0 0 0,-0.002 c -9.6471,-15.48896 -17.86016,-27.03605 -24.48046,-34.53906 -2.06759,-2.34326 -3.942,-4.10218 -5.59571,-5.52539 a 5.0005,5.0005 0 0 0 -8.26172,3.82031 c 0.14217,22.87482 0.62841,50.46866 1.64063,85.25196 0.0648,2.25675 -1.8839,4.26342 -4.14258,4.26367 h -45.65234 c -2.27783,-1.7e-4 -4.23818,-2.04679 -4.14063,-4.32227 1.39983,-32.51891 2.09961,-69.21203 2.09961,-110.06836 0,-39.2355 -0.70156,-72.68405 -2.09961,-100.32226 -0.11527,-2.28558 1.85168,-4.35364 4.14063,-4.35352 a 5.0005,5.0005 0 0 0 0.1289,-0.002 z m 107.09375,3.96875 c 6.3e-4,0.002 -6.3e-4,3e-4 0,0.002 -0.054,-0.14192 -0.006,0.052 -0.006,0.0527 a 5.0005,5.0005 0 0 0 -0.0234,-0.01 z m -374.82422,24.5625 c -23.76524,0 -39.59566,0.77789 -51.05664,4.87109 -5.1515,1.83884 -8.78942,6.50195 -9.32226,11.94532 a 5.0005,5.0005 0 0 0 -0.0234,0.48632 v -0.24023 l -2.89062,29.70898 a 5.0005,5.0005 0 0 0 0,0.004 c -0.90734,9.35455 7.73738,17.12037 16.9414,15.2168 a 5.0005,5.0005 0 0 0 0.004,0 c 8.20534,-1.69766 18.02302,-2.6211 29.34961,-2.6211 11.89115,0 19.86329,2.4104 22.72851,4.24414 1.97113,1.26152 2.56722,1.92767 2.92188,2.61914 0.35466,0.69148 0.67773,2.01211 0.67773,4.89454 0,2.31639 -0.29451,3.43881 -1.46289,4.99218 -1.16716,1.55177 -3.60244,3.58284 -8.11328,6.03516 l 0.13867,-0.0742 c -3e-5,2e-5 -0.059,0.0385 -0.0664,0.043 a 5.0005,5.0005 0 0 0 -0.0723,0.0312 l -0.004,0.002 c -0.003,0.002 -0.005,0.002 -0.008,0.004 -8.44782,4.54184 -20.63442,7.36133 -36.81445,7.36133 -7.07596,0.001 -13.11312,5.29801 -14.02735,12.3164 a 5.0005,5.0005 0 0 0 0.002,0.004 l -3.17969,24.375 1.20117,-1.20117 a 5.0005,5.0005 0 0 0 -1.42383,2.89062 c -1.09219,8.39171 5.56628,15.96732 14.02735,15.96875 22.75956,0 39.05566,3.46571 47.49414,7.96875 4.54991,2.42799 7.02264,4.5723 8.45312,6.84571 1.43048,2.2734 2.11133,5.03164 2.11133,9.57031 0,5.42944 -1.14856,9.61733 -3.9375,13.7168 -2.78894,4.09946 -7.43277,8.17757 -14.73633,12.40429 a 5.0005,5.0005 0 0 0 -0.0937,0.0547 c -13.76648,8.09794 -34.14341,13.6569 -61.08593,15.39844 -8.26183,0.53437 -14.37062,8.19814 -13.05079,16.37109 a 5.0005,5.0005 0 0 0 0,0.004 l 4.30665,26.63867 v -0.40039 a 5.0005,5.0005 0 0 0 0.0644,0.80078 c 1.15533,7.12927 7.58142,12.28017 14.79101,11.85742 44.29589,-2.59264 80.41199,-13.59299 107.22266,-34.33594 a 5.0005,5.0005 0 0 0 0.0508,-0.043 c 23.32951,-18.03343 36.68555,-41.65299 36.68555,-68.13282 0,-17.56231 -5.82443,-33.71968 -17.20117,-46.33984 l -0.0117,-0.0137 c -4.57868,-5.12524 -9.84335,-9.36885 -15.57422,-12.83985 2.27697,-2.00241 4.46615,-4.14257 6.50586,-6.49609 a 5.0005,5.0005 0 0 0 0.006,-0.01 l 0.008,-0.01 c 9.53569,-11.01907 14.93555,-24.30799 14.93555,-38.38477 0,-17.15183 -7.31815,-32.67883 -20.6836,-43.06054 l -0.004,-0.004 c -0.0426,-0.0331 -0.0858,-0.0653 -0.12891,-0.0977 a 5.0005,5.0005 0 0 0 -0.01,-0.008 c -0.0661,-0.0494 0.0147,0.0126 -0.0156,-0.01 -14.33476,-10.82134 -33.31856,-15.32227 -55.62891,-15.32227 z m 51.11719,230.72852 a 5.0005,5.0005 0 0 0 0.17578,-0.14258 c 0.0341,-0.0297 0.0679,-0.0597 0.10157,-0.0899 z M 467.83203,288.15625 c -23.76523,0 -39.59724,0.77775 -51.05859,4.87109 -5.14956,1.84002 -8.78844,6.50197 -9.32032,11.94532 a 5.0005,5.0005 0 0 0 -0.0234,0.48632 v -0.24023 l -2.89063,29.70898 a 5.0005,5.0005 0 0 0 0,0.004 c -0.90733,9.35455 7.73739,17.12037 16.94141,15.2168 a 5.0005,5.0005 0 0 0 0.004,0 c 8.20535,-1.69766 18.02305,-2.6211 29.34961,-2.6211 11.89118,0 19.86329,2.41039 22.72852,4.24414 1.9708,1.26131 2.56558,1.92798 2.91992,2.61914 0.35435,0.69117 0.67774,2.01125 0.67774,4.89454 0,2.31737 -0.29504,3.44112 -1.46289,4.99414 -1.16665,1.5514 -3.60065,3.58097 -8.11133,6.0332 l 0.13867,-0.0742 c -4e-5,2e-5 -0.059,0.0385 -0.0664,0.043 a 5.0005,5.0005 0 0 0 -0.0723,0.0312 l -0.004,0.002 c -0.003,0.002 -0.005,0.002 -0.008,0.004 -8.4478,4.54184 -20.63443,7.36133 -36.81445,7.36133 -7.07597,0.001 -13.11313,5.29802 -14.02735,12.3164 a 5.0005,5.0005 0 0 0 0.002,0.004 l -3.17968,24.375 1.20117,-1.20117 a 5.0005,5.0005 0 0 0 -1.42383,2.89062 c -1.09219,8.39171 5.56628,15.96732 14.02734,15.96875 22.75958,0 39.05565,3.46571 47.49415,7.96875 4.54991,2.42799 7.02264,4.5723 8.45312,6.84571 1.43048,2.2734 2.11133,5.03164 2.11133,9.57031 0,5.42944 -1.14857,9.61733 -3.9375,13.7168 -2.78894,4.09946 -7.43277,8.17757 -14.73633,12.40429 a 5.0005,5.0005 0 0 0 -0.0937,0.0547 c -13.76647,8.09793 -34.14342,13.6569 -61.08594,15.39844 -8.26181,0.53438 -14.37061,8.19814 -13.05078,16.37109 a 5.0005,5.0005 0 0 0 0,0.004 l 4.30664,26.63867 v -0.40039 a 5.0005,5.0005 0 0 0 0.0645,0.80078 c 1.15534,7.12926 7.58143,12.28015 14.79101,11.85742 44.29589,-2.59264 80.41199,-13.59299 107.22266,-34.33594 a 5.0005,5.0005 0 0 0 0.0508,-0.043 c 23.32952,-18.03343 36.68555,-41.65299 36.68555,-68.13282 0,-17.56454 -5.82932,-33.72369 -17.20704,-46.34375 -4.58021,-5.12879 -9.8483,-9.37304 -15.58203,-12.8457 2.27834,-2.00381 4.4671,-4.14533 6.50782,-6.5 a 5.0005,5.0005 0 0 0 0.006,-0.01 l 0.008,-0.01 c 9.53569,-11.01907 14.93554,-24.30799 14.93554,-38.38477 0,-17.15183 -7.31813,-32.67883 -20.68359,-43.06054 l -0.004,-0.004 c -0.0426,-0.0331 -0.0858,-0.0653 -0.1289,-0.0977 a 5.0005,5.0005 0 0 0 -0.01,-0.008 c -0.0661,-0.0494 0.0148,0.0126 -0.0156,-0.01 -14.33477,-10.82134 -33.31856,-15.32227 -55.62891,-15.32227 z m 51.11719,230.72852 a 5.0005,5.0005 0 0 0 0.17578,-0.14258 c 0.0341,-0.0297 0.0679,-0.0597 0.10156,-0.0899 z M 311.77148,298.15625 c 20.96299,0 37.60666,4.24481 49.60547,13.30273 a 5.0005,5.0005 0 0 0 0.0352,0.0274 c 0.0504,0.0373 -0.0234,-0.0183 0.004,0.002 a 5.0005,5.0005 0 0 0 0.006,0.004 c -0.0168,-0.0126 0.0842,0.0625 0.006,0.004 10.99601,8.54209 16.81446,20.7892 16.81446,35.16211 0,11.55151 -4.32454,22.40137 -12.50391,31.84961 a 5.0005,5.0005 0 0 0 -0.008,0.0117 c -3.22929,3.72498 -6.87901,6.93986 -10.85547,9.75977 a 5.0005,5.0005 0 0 0 0.76953,8.60547 c 7.35703,3.4499 13.85516,8.12349 19.26953,14.1875 a 5.0005,5.0005 0 0 0 0.0215,0.0234 c 9.69951,10.75375 14.63867,24.26559 14.63867,39.65625 0,23.16707 -11.31431,43.61042 -32.80274,60.22071 a 5.0005,5.0005 0 0 0 -0.0586,0.0488 c -24.72219,19.1248 -58.72136,29.74545 -101.68359,32.25977 -2.0686,0.12129 -4.00256,-1.42945 -4.33399,-3.47461 l -4.30664,-26.63867 v 0.39844 a 5.0005,5.0005 0 0 0 -0.0644,-0.79688 c -0.37515,-2.32307 1.47622,-4.64501 3.82422,-4.79687 27.83823,-1.79944 49.56417,-7.4588 65.27539,-16.63282 -10e-6,1e-5 0.004,-0.002 0.004,-0.002 1.2e-4,-7e-5 0.004,-0.004 0.004,-0.004 8e-5,-4e-5 0.004,-0.002 0.004,-0.002 0.0347,-0.0202 0.0748,-0.0364 0.10937,-0.0566 a 5.0005,5.0005 0 0 0 0.11524,-0.0625 5.0005,5.0005 0 0 0 0.0312,-0.0176 c 8.11558,-4.69666 14.05681,-9.64233 17.99804,-15.43554 3.94123,-5.79322 5.66797,-12.36699 5.66797,-19.3418 0,-5.61417 -0.95723,-10.61947 -3.64844,-14.89649 -2.6912,-4.27701 -6.82378,-7.46807 -12.20898,-10.34179 -11.08456,-5.91507 -28.4813,-9.14649 -52.20117,-9.14649 -2.40154,-4e-4 -4.41914,-2.29769 -4.10938,-4.67773 a 5.0005,5.0005 0 0 0 0,-0.002 l 3.40039,-26.06446 c 0.2624,-2.01438 2.07626,-3.60906 4.10938,-3.60937 17.29208,0 31.0612,-2.93994 41.48047,-8.52344 l -0.70508,0.30273 c 6.1e-4,-2e-4 0.61107,-0.28939 0.87891,-0.41601 -0.0528,0.0326 -0.15867,0.10325 -0.17188,0.11133 -1.7e-4,1e-4 -0.002,0.002 -0.002,0.002 -0.003,0.002 -0.043,0.0274 -0.043,0.0273 a 5.0005,5.0005 0 0 0 0.0937,-0.0508 5.0005,5.0005 0 0 0 0.002,0 5.0005,5.0005 0 0 0 0.0547,-0.0293 c 0.0705,-0.0383 0.11171,-0.077 0.18164,-0.11524 0.0131,-0.006 0.0879,-0.041 0.0879,-0.041 1.2e-4,-8e-5 0.0928,-0.0689 0.13281,-0.0977 4.92354,-2.71539 8.50472,-5.32354 10.93946,-8.56055 2.51047,-3.33771 3.47265,-7.29627 3.47265,-11.0039 0,-3.56038 -0.33224,-6.63193 -1.78125,-9.45704 -1.449,-2.8251 -3.80494,-4.79992 -6.42773,-6.47851 -5.83535,-3.73463 -15.02768,-5.82227 -28.11914,-5.82227 -11.86697,0 -22.33107,0.95657 -31.37696,2.82813 -2.58932,0.53552 -5.22014,-1.82684 -4.96484,-4.45899 a 5.0005,5.0005 0 0 0 0.0234,-0.48242 v 0.24024 l 2.89062,-29.70899 c 0.15472,-1.58048 1.23744,-2.96636 2.73242,-3.5 8.94307,-3.19395 24.1923,-4.28906 47.69336,-4.28906 z m 156.06055,0 c 20.96299,0 37.60665,4.24481 49.60547,13.30273 a 5.0005,5.0005 0 0 0 0.0352,0.0274 c 0.0504,0.0373 -0.0234,-0.0183 0.004,0.002 a 5.0005,5.0005 0 0 0 0.006,0.004 c -0.0168,-0.0126 0.0842,0.0625 0.006,0.004 10.99602,8.54209 16.81445,20.7892 16.81445,35.16211 0,11.55151 -4.32453,22.40137 -12.5039,31.84961 a 5.0005,5.0005 0 0 0 -0.008,0.0117 c -3.22974,3.72549 -6.87912,6.9414 -10.85547,9.76172 a 5.0005,5.0005 0 0 0 0.76953,8.60547 c 7.35453,3.4486 13.8505,8.12012 19.26367,14.18164 a 5.0005,5.0005 0 0 0 0.0176,0.0195 c 9.70367,10.75505 14.64844,24.27052 14.64844,39.66406 0,23.16707 -11.31431,43.61042 -32.80274,60.22071 a 5.0005,5.0005 0 0 0 -0.0586,0.0488 c -24.72219,19.1248 -58.72136,29.74545 -101.6836,32.25977 -2.06858,0.12129 -4.00255,-1.42946 -4.33398,-3.47461 l -4.30664,-26.63867 v 0.39844 a 5.0005,5.0005 0 0 0 -0.0645,-0.79688 c -0.37515,-2.32308 1.4762,-4.645 3.82421,-4.79687 27.83823,-1.79944 49.56418,-7.45881 65.27539,-16.63282 0,1e-5 0.004,-0.002 0.004,-0.002 1.2e-4,-7e-5 0.004,-0.004 0.004,-0.004 7e-5,-4e-5 0.004,-0.002 0.004,-0.002 0.0347,-0.0202 0.0748,-0.0364 0.10938,-0.0566 a 5.0005,5.0005 0 0 0 0.11523,-0.0625 5.0005,5.0005 0 0 0 0.0312,-0.0176 c 8.11559,-4.69666 14.05682,-9.64232 17.99805,-15.43554 3.94123,-5.79322 5.66797,-12.36699 5.66797,-19.3418 0,-5.61417 -0.95723,-10.61947 -3.64844,-14.89649 -2.6912,-4.27701 -6.82378,-7.46807 -12.20898,-10.34179 -11.08457,-5.91507 -28.4813,-9.14649 -52.20118,-9.14649 -2.40152,-4e-4 -4.41914,-2.29769 -4.10937,-4.67773 a 5.0005,5.0005 0 0 0 0,-0.002 l 3.40039,-26.06446 c 0.2624,-2.01439 2.07625,-3.60906 4.10938,-3.60937 17.29207,0 31.0612,-2.93994 41.48046,-8.52344 l -0.70507,0.30273 c 6.1e-4,-2e-4 0.61107,-0.28939 0.8789,-0.41601 -0.0528,0.0326 -0.15867,0.10325 -0.17187,0.11133 -1.8e-4,1e-4 -0.002,0.002 -0.002,0.002 -0.003,0.002 -0.043,0.0274 -0.043,0.0273 a 5.0005,5.0005 0 0 0 0.0937,-0.0508 5.0005,5.0005 0 0 0 0.002,0 5.0005,5.0005 0 0 0 0.0547,-0.0293 c 0.0705,-0.0383 0.11171,-0.077 0.18164,-0.11524 0.0131,-0.006 0.0878,-0.041 0.0879,-0.041 1.2e-4,-8e-5 0.0928,-0.0689 0.13281,-0.0977 4.92345,-2.71534 8.50511,-5.32336 10.93945,-8.56055 2.51008,-3.3379 3.47071,-7.29643 3.47071,-11.0039 0,-3.56037 -0.33085,-6.63177 -1.7793,-9.45704 -1.44845,-2.82526 -3.80504,-4.79999 -6.42774,-6.47851 -5.83534,-3.73462 -15.02765,-5.82227 -28.11914,-5.82227 -11.86694,0 -22.33105,0.95657 -31.37695,2.82813 -2.58933,0.53552 -5.22014,-1.82685 -4.96484,-4.45899 a 5.0005,5.0005 0 0 0 0.0234,-0.48242 v 0.24024 l 2.89063,-29.70899 c 0.15434,-1.57957 1.23511,-2.96568 2.73047,-3.5 8.94311,-3.19397 24.19423,-4.28906 47.69531,-4.28906 z m -156.39648,72.23047 c -0.18673,0.11524 -0.40769,0.25246 -0.58789,0.3789 0.17407,-0.12806 0.38903,-0.28538 0.38867,-0.28515 -1e-4,6e-5 0.13915,-0.0654 0.19922,-0.0937 z m 156.06054,0 c -0.18673,0.11524 -0.40768,0.25246 -0.58789,0.3789 0.17407,-0.12806 0.38903,-0.28538 0.38867,-0.28515 -1e-4,6e-5 0.13916,-0.0654 0.19922,-0.0937 z m -150.34375,8.12305 c 0.0898,-0.0769 0.0658,-0.0535 -0.0957,0.0781 -0.0158,0.0129 -0.0639,0.0401 -0.0898,0.0586 0.0808,-0.0596 0.15755,-0.11272 0.18554,-0.13671 z m 156.06055,0 c 0.0898,-0.0769 0.0658,-0.0535 -0.0957,0.0781 -0.0158,0.0129 -0.0639,0.0401 -0.0899,0.0586 0.0808,-0.0596 0.15756,-0.11272 0.18555,-0.13671 z m 246.14844,33.01367 a 5.0005,5.0005 0 0 0 0.89844,2.8457 c 0.0287,0.0409 -0.0701,-0.11357 -0.12305,-0.19336 z"
       id="path89427" /><path
       style="color:#000000;-inkscape-font-specification:'Candara, Bold';fill:#ff6600;stroke-width:10;stroke-linecap:square;stroke-linejoin:round;-inkscape-stroke:none;paint-order:stroke markers fill"
       d="m 168.5,251.71289 c -38.89119,0 -70.857099,12.21899 -93.634766,36.75781 a 5.0005,5.0005 0 0 0 -0.01758,0.0176 c -22.235555,24.07892 -33.669922,53.21457 -33.669922,85.85156 0,31.05419 10.528874,58.4061 31.123047,80.39649 a 5.0005,5.0005 0 0 0 0.03516,0.0351 c 21.240828,22.43414 52.343701,33.29297 91.146481,33.29297 18.4246,0 40.53867,-3.45525 66.69922,-10.16015 4.15734,-1.06417 7.04947,-4.9546 6.86914,-9.24219 -0.86026,-20.53848 -1.28906,-36.85107 -1.28906,-48.83008 0,-16.67973 0.43004,-33.24991 1.28516,-49.71094 0.26754,-5.15973 -3.96615,-9.61849 -9.13282,-9.61914 h -45.81445 c -5.51677,-1.5e-4 -9.88431,5.0975 -9.03711,10.54883 a 5.0005,5.0005 0 0 0 0,0.002 c 2.2094,14.2033 3.29102,26.86895 3.29102,37.93165 0,8.99482 0.64515,18.11096 1.60546,27.2832 -4.19806,0.46996 -8.15173,0.80664 -11.40234,0.80664 -20.05337,0 -34.07655,-6.31929 -45.06641,-19.65625 0,0 -0.002,-0.002 -0.002,-0.002 -11.24356,-13.77666 -16.69336,-29.32739 -16.69336,-48.09375 0,-18.50238 4.93048,-33.16287 14.81055,-45.41797 a 5.0005,5.0005 0 0 0 0.0215,-0.0273 c 9.36651,-11.70813 22.92695,-17.61328 43.85547,-17.61328 12.48864,0 26.97257,2.06703 43.3418,6.3418 a 5.0005,5.0005 0 0 0 0.002,0 c 5.21125,1.35877 10.61602,-2.2467 11.36328,-7.58008 l 5.3418,-38.20703 a 5.0005,5.0005 0 0 0 0,-0.002 c 0.64733,-4.63243 -2.40283,-9.08913 -6.95508,-10.16407 a 5.0005,5.0005 0 0 0 0,-0.002 c -14.14136,-3.33427 -30.15218,-4.9375 -48.07617,-4.9375 z m 410.87305,2.91406 c -5.16232,-2.8e-4 -9.39481,4.44947 -9.13477,9.60547 1.39203,27.5192 2.09375,60.89447 2.09375,100.07031 0,40.7992 -0.69974,77.42445 -2.0957,109.85352 -0.21999,5.13165 4.00035,9.53672 9.13672,9.53711 h 45.65234 c 5.08819,-5.7e-4 9.28662,-4.32016 9.14063,-9.40625 a 5.0005,5.0005 0 0 0 0,-0.002 c -1.01134,-34.75302 -1.4968,-62.30972 -1.63868,-85.13868 1.52968,1.31646 3.20547,2.88938 5.10743,5.04493 6.28652,7.12472 14.42522,18.52216 23.98632,33.87304 a 5.0005,5.0005 0 0 0 0.002,0.006 c 9.05798,14.52492 15.82264,25.99894 20.20898,34.22657 2.19207,4.11176 3.79544,7.44065 4.74805,9.74609 0.43459,1.05175 0.72238,1.9709 0.89453,2.5957 0.0861,0.3124 0.14371,0.5495 0.17773,0.69922 0.017,0.0749 0.027,0.12509 0.0352,0.16406 0.004,0.0195 0.007,0.0319 0.0156,0.0703 0.004,0.0192 0.005,0.0297 0.0293,0.13281 0.0123,0.0516 0.12679,0.43895 0.12696,0.43945 3e-5,8e-5 0.0714,0.18033 0.13476,0.33789 0.92707,4.05724 4.43952,7.21071 8.74805,7.21094 h 52.9375 a 5.0005,5.0005 0 0 0 0.002,0 c 4.98933,-0.003 9.14036,-4.15521 9.14063,-9.14453 0,-3.98947 -1.49217,-6.89981 -2.90821,-9.96094 -1.55595,-3.36362 -3.71654,-7.43378 -6.54101,-12.4043 -5.64875,-9.94069 -13.95903,-23.44435 -25.00782,-40.66797 -0.004,-0.007 -0.007,-0.0109 -0.0117,-0.0176 a 5.0005,5.0005 0 0 0 0,-0.002 c -11.93233,-18.63383 -22.31555,-33.42134 -31.32032,-44.50195 -5.49164,-6.75763 -10.38721,-12.07739 -15.11132,-16.15625 9.93921,-8.65884 22.26332,-21.78077 38.41992,-40.84375 0,0 0.002,-0.002 0.002,-0.002 a 5.0005,5.0005 0 0 0 0.002,0 c 9.94887,-11.74293 17.44641,-21.02897 22.61133,-28.05664 2.5806,-3.51129 4.58619,-6.45384 6.09375,-9.04883 1.25077,-2.15297 3.08789,-5.06049 3.08789,-9.11524 -2.6e-4,-4.99091 -4.15361,-9.14426 -9.14453,-9.14453 h -48.24219 c -4.02857,2.2e-4 -7.39056,2.74969 -8.58398,6.41797 -0.0623,0.17832 -0.086,0.33836 -0.13477,0.44141 -0.50437,1.06495 -0.34439,0.89905 -0.42968,1.1582 -0.17059,0.5183 -0.40835,1.19393 -0.77149,1.91602 -0.93898,1.86711 -2.57624,4.70508 -4.81445,8.25 -4.4792,7.09422 -11.40572,17.1457 -20.67774,29.95507 a 5.0005,5.0005 0 0 0 -0.004,0.002 c -9.49198,13.11812 -17.17483,22.89541 -22.75782,29.08398 0.178,-21.48151 0.63553,-43.83286 1.58399,-67.71679 a 5.0005,5.0005 0 0 0 0,-0.002 c 0.20259,-5.12068 -4.01008,-9.50477 -9.13477,-9.50586 a 5.0005,5.0005 0 0 0 -0.002,0 H 579.375 Z m 102.23437,9.14453 a 5.0005,5.0005 0 0 0 0.68164,2.30079 c -0.14022,-0.25204 -0.30089,-0.52493 -0.36718,-0.69922 -0.40068,-1.05345 -0.29296,-1.19993 -0.30469,-1.36719 -0.0117,-0.16726 -0.01,-0.21566 -0.01,-0.23438 z m 0.70313,2.3418 A 5.0005,5.0005 0 0 0 684,267.82812 c -0.21639,-0.14337 -0.65742,-0.42514 -0.88281,-0.64257 -0.28079,-0.27088 -0.48373,-0.52871 -0.64063,-0.75586 -0.0939,-0.13603 -0.0995,-0.2 -0.16601,-0.31641 z m 2.07422,1.92969 a 5.0005,5.0005 0 0 0 0.20898,0.0488 c -0.003,0.006 -0.007,0.0135 -0.01,0.0195 -0.0673,-0.0228 -0.16121,-0.0555 -0.19921,-0.0684 z m -372.61329,25.11328 c -23.63318,0 -39.17297,0.9365 -49.375,4.58008 -3.32325,1.18624 -5.68356,4.21072 -6.02734,7.72265 a 5.0005,5.0005 0 0 0 0,0.002 l -2.91406,29.95117 a 5.0005,5.0005 0 0 0 0,0.002 c -0.58132,5.99335 5.05644,11.05744 10.95312,9.83789 a 5.0005,5.0005 0 0 0 0.002,0 c 8.62562,-1.78461 18.76649,-2.72461 30.36328,-2.72461 12.49132,0 21.07354,2.24902 25.42383,5.03321 4.59392,2.94011 5.90429,5.28181 5.90429,11.72461 0,6.02403 -2.51426,10.16263 -12.20117,15.42578 -0.002,0.001 -0.003,0.003 -0.006,0.004 -9.43836,5.07795 -22.43424,7.96485 -39.19531,7.96485 -4.55454,7.1e-4 -8.48005,3.4465 -9.06836,7.96289 h 0.002 l -3.40039,26.06445 a 5.0005,5.0005 0 0 0 -0.002,0.002 c -0.70098,5.38588 3.63705,10.3233 9.06836,10.32422 23.23974,0 40.08612,3.34758 49.84765,8.55664 9.93512,5.30171 13.21094,10.67528 13.21094,20.82813 0,12.40427 -5.75077,21.52582 -21.16992,30.44922 -0.002,10e-4 -0.004,0.003 -0.006,0.004 a 5.0005,5.0005 0 0 0 -0.0566,0.0312 c -14.74753,8.67503 -35.84152,14.30527 -63.29883,16.08008 -5.30492,0.34312 -9.28499,5.33597 -8.4375,10.58399 a 5.0005,5.0005 0 0 0 0,0.002 l 4.3711,27.03516 a 5.0005,5.0005 0 0 0 0,0.002 c 0.74338,4.58722 4.9234,7.93803 9.5625,7.66601 43.63115,-2.55347 78.69014,-13.36343 104.45703,-33.29882 a 5.0005,5.0005 0 0 0 0.0508,-0.0449 c 22.40899,-17.32187 34.74414,-39.35231 34.74414,-64.17578 0,-16.47963 -5.38364,-31.31791 -15.92578,-43.00586 l -0.002,-0.002 c 0,0 -0.002,-0.002 -0.002,-0.002 -5.89063,-6.59741 -12.96932,-11.67667 -20.87695,-15.38477 4.26455,-3.0242 8.2278,-6.50849 11.74804,-10.57031 a 5.0005,5.0005 0 0 0 0.004,-0.008 c 8.86013,-10.23461 13.72266,-22.3049 13.72266,-35.1211 0,-15.76455 -6.56996,-29.65322 -18.75391,-39.11523 a 5.0005,5.0005 0 0 0 -0.0664,-0.0508 c -0.0107,-0.008 -0.0224,-0.0154 -0.0332,-0.0234 -13.1668,-9.93964 -30.9805,-14.3125 -52.61719,-14.3125 z m 156.06055,0 c -23.63318,0 -39.17471,0.93642 -49.37695,4.58008 -3.32246,1.18717 -5.68228,4.21119 -6.02539,7.72265 a 5.0005,5.0005 0 0 0 0,0.002 l -2.91407,29.95117 a 5.0005,5.0005 0 0 0 0,0.002 c -0.58132,5.99335 5.05645,11.05744 10.95313,9.83789 a 5.0005,5.0005 0 0 0 0.002,0 c 8.62563,-1.78461 18.76651,-2.72461 30.36328,-2.72461 12.49134,0 21.07354,2.24902 25.42383,5.03321 4.5935,2.93983 5.90235,5.28095 5.90235,11.72461 0,6.02485 -2.51254,10.16276 -12.19922,15.42578 -0.002,0.001 -0.003,0.003 -0.006,0.004 -9.43835,5.07795 -22.43425,7.96485 -39.19531,7.96485 -4.55455,7.1e-4 -8.48005,3.4465 -9.06836,7.96289 h 0.002 l -3.40039,26.06445 a 5.0005,5.0005 0 0 0 -0.002,0.002 c -0.70098,5.38588 3.63706,10.3233 9.06836,10.32422 23.23975,0 40.08611,3.34758 49.84765,8.55664 9.93512,5.30171 13.21094,10.67528 13.21094,20.82813 0,12.40427 -5.75076,21.52582 -21.16992,30.44922 -0.002,10e-4 -0.004,0.003 -0.006,0.004 a 5.0005,5.0005 0 0 0 -0.0566,0.0312 c -14.74752,8.67502 -35.84153,14.30527 -63.29883,16.08008 -5.30492,0.34313 -9.28499,5.33597 -8.4375,10.58399 a 5.0005,5.0005 0 0 0 0,0.002 l 4.37109,27.03516 a 5.0005,5.0005 0 0 0 0,0.002 c 0.74339,4.58721 4.92341,7.93802 9.5625,7.66601 43.63116,-2.55347 78.69015,-13.36343 104.45703,-33.29882 a 5.0005,5.0005 0 0 0 0.0508,-0.0449 c 22.409,-17.32187 34.74415,-39.35231 34.74415,-64.17578 0,-16.4834 -5.38929,-31.32474 -15.93555,-43.01367 -5.88936,-6.59474 -12.96602,-11.67214 -20.8711,-15.3789 4.26476,-3.02488 8.22777,-6.51041 11.74805,-10.57227 a 5.0005,5.0005 0 0 0 0.004,-0.008 c 8.86013,-10.23461 13.72265,-22.3049 13.72265,-35.1211 0,-15.76455 -6.56994,-29.65322 -18.7539,-39.11523 a 5.0005,5.0005 0 0 0 -0.0664,-0.0508 c -0.0107,-0.008 -0.0224,-0.0154 -0.0332,-0.0234 -13.16681,-9.93964 -30.9805,-14.3125 -52.61719,-14.3125 z m 219.87109,180.36914 c 0,2e-5 -0.006,0.43562 -0.0117,0.86328 a 5.0005,5.0005 0 0 0 -0.0937,0.16016 c 0,1.1e-4 0.10548,-1.02349 0.10546,-1.02344 z m -0.0254,1.91016 c 0,0 0.0995,0.002 0.10157,0.002 0.0324,0.31029 0.12199,0.59944 0.18554,0.90039 -0.11492,-0.35974 -0.28711,-0.90234 -0.28711,-0.90234 z"
       id="path89429" /></g><path
     id="path89207"
     style="color:#000000;-inkscape-font-specification:'Candara, Bold';fill:#333333;fill-opacity:1;stroke-width:0.691284;stroke-linecap:square;stroke-linejoin:round;-inkscape-stroke:none;paint-order:stroke markers fill"
     d="m 88.132157,122.61421 c -27.15134,7.27517 -47.376963,21.05849 -59.079688,40.99105 a 3.3062106,3.6141831 75 0 0 -0.0076,0.0131 c -11.402948,19.53744 -14.399864,40.28381 -8.814866,61.12733 5.314137,19.83265 17.34534,35.33127 35.486009,45.52292 a 3.3062106,3.6141831 75 0 0 0.03154,0.0169 c 18.668005,10.35408 42.240307,11.47074 69.329928,4.2121 12.86292,-3.44661 27.71028,-9.79002 44.82653,-18.96583 2.72031,-1.45734 4.07364,-4.48293 3.21403,-7.18748 -4.11522,-12.9559 -7.20607,-23.29369 -9.25597,-30.94406 -2.85432,-10.65245 -5.3897,-21.31536 -7.60956,-31.98813 -0.6964,-3.34525 -4.41488,-5.40089 -8.02204,-4.43481 l -31.98503,8.57036 c -3.8515,1.0319 -6.02832,5.10452 -4.50396,8.42753 a 3.3062106,3.6141831 75 0 0 3.2e-4,0.001 c 3.97298,8.65761 6.89554,16.54415 8.78864,23.60932 1.53924,5.74452 3.54965,11.44582 5.78965,17.124 -2.85039,1.08551 -5.55296,2.04007 -7.82233,2.64815 -14,3.75129 -24.871476,2.33874 -34.826225,-4.12305 0,0 -0.0017,-9.1e-4 -0.0017,-9.1e-4 -10.207048,-6.69513 -16.672853,-15.60709 -19.884252,-27.59219 -3.16622,-11.81649 -2.23285,-22.10167 2.56762,-31.77657 a 3.3062106,3.6141831 75 0 0 0.01,-0.02 c 4.535571,-9.22952 12.992081,-15.53749 27.603067,-19.4525 8.71877,-2.33618 19.18426,-3.72553 31.34375,-4.05756 a 3.3062106,3.6141831 75 0 0 0.001,-3.8e-4 c 3.87066,-0.10708 7.02698,-3.42074 6.63597,-6.96668 l -2.80887,-25.40007 a 3.3062106,3.6141831 75 0 0 -3.3e-4,-10e-4 c -0.34085,-3.07955 -3.23287,-5.35524 -6.59491,-5.19021 a 3.3062106,3.6141831 75 0 0 -3.4e-4,-10e-4 c -10.4432,0.51594 -21.89528,2.48711 -34.408701,5.84006 z M 375.47643,47.615212 c -3.60409,0.965494 -5.79745,4.59908 -4.73358,7.843303 5.68107,17.31467 11.88223,38.498394 18.58617,63.517915 6.98187,26.0563 12.76064,49.57784 17.33568,70.54966 0.72463,3.31848 4.42473,5.34229 8.01067,4.38168 l 31.87159,-8.53997 c 3.55217,-0.95216 5.744,-4.49625 4.77182,-7.71714 a 3.3062106,3.6141831 75 0 0 -3.9e-4,-10e-4 c -6.65317,-22.00575 -11.70769,-39.51391 -15.7134,-54.067 1.29318,0.55463 2.73237,1.24564 4.42911,2.26648 5.60799,3.37419 13.24019,9.13068 22.5422,17.14589 a 3.3062106,3.6141831 75 0 0 0.002,0.003 c 8.8093,7.58189 15.4954,13.64429 19.96551,18.07831 2.23406,2.2159 3.92303,4.04195 4.98259,5.33613 0.48386,0.5904 0.84149,1.12352 1.06872,1.49037 0.11308,0.18355 0.19385,0.32401 0.24385,0.41332 0.0154,0.0454 0.0385,0.0762 0.0539,0.0978 0.005,0.0131 0.008,0.0185 0.0154,0.0415 0.005,0.0131 0.008,0.0185 0.0462,0.0795 0.0154,0.0315 0.16385,0.25685 0.16385,0.25685 8e-5,5e-5 0.0769,0.10239 0.15154,0.19039 1.34158,2.4177 4.33335,3.77462 7.34135,2.9688 l 36.95765,-9.90275 a 3.3062106,3.6141831 75 0 0 10e-4,-4e-4 c 3.48271,-0.93526 5.67007,-4.36355 4.81659,-7.55003 -0.68233,-2.54784 -2.22252,-4.1274 -3.73502,-5.81747 -1.66174,-1.8571 -3.86664,-4.05237 -6.6891,-6.69839 -5.64468,-5.29191 -13.75728,-12.3614 -24.41817,-21.2944 -0.004,-0.003 -0.005,-0.005 -0.005,-0.008 a 3.3062106,3.6141831 75 0 0 -3.9e-4,-10e-4 c -11.51906,-9.66831 -21.29839,-17.16997 -29.4813,-22.562102 -4.99012,-3.288431 -9.31839,-5.770103 -13.31434,-7.491316 5.45714,-7.389245 11.81554,-18.074913 19.83282,-33.271752 0,0 0.001,-0.0017 0.001,-0.0017 a 3.3062106,3.6141831 75 0 0 10e-4,-3.69e-4 c 4.93613,-9.36068 8.58137,-16.693739 10.98459,-22.148111 1.2008,-2.725216 2.09744,-4.979644 2.70576,-6.918917 0.50463,-1.608972 1.28981,-3.809529 0.59617,-6.39908 -0.8544,-3.187344 -4.46473,-5.062939 -7.94897,-4.129492 l -33.67972,9.024433 c -2.81246,0.753789 -4.68904,3.138605 -4.89451,5.704586 -0.008,0.125311 -0.002,0.232006 -0.0154,0.307085 -0.17001,0.774405 -0.0831,0.638555 -0.10155,0.81999 -0.0385,0.362856 -0.0831,0.838938 -0.21077,1.36799 -0.33539,1.368066 -0.99341,3.48679 -1.94936,6.169444 -1.91312,5.368623 -5.02874,13.083676 -9.30985,22.998778 a 3.3062106,3.6141831 75 0 0 -0.003,0.002 c -4.38173,10.153462 -8.07237,17.834899 -10.91105,22.831589 -3.55186,-13.752355 -7.05688,-28.112687 -10.4822,-43.543432 a 3.3062106,3.6141831 75 0 0 -2.3e-4,-0.0013 c -0.7354,-3.308224 -4.42604,-5.320061 -8.00413,-4.362074 a 3.3062106,3.6141831 75 0 0 -10e-4,3.61e-4 l -31.87028,8.539613 z m 72.93835,-13.284366 a 3.3062106,3.6141831 75 0 0 0.8701,1.341842 c -0.14154,-0.134619 -0.29924,-0.279007 -0.37617,-0.377856 -0.46078,-0.597784 -0.41001,-0.711557 -0.44693,-0.816098 -0.0385,-0.105387 -0.0462,-0.136311 -0.0462,-0.148311 z m 0.89141,1.364081 a 3.3062106,3.6141831 75 0 0 1.47288,0.779113 c -0.17539,-0.05077 -0.53155,-0.148773 -0.72694,-0.245237 -0.24232,-0.120465 -0.42847,-0.247238 -0.57617,-0.362933 -0.0923,-0.06923 -0.10385,-0.109233 -0.17,-0.171081 z m 1.77827,0.844391 a 3.3062106,3.6141831 75 0 0 0.15462,-0.0065 c -10e-4,0.0038 -8.4e-4,0.01077 -0.002,0.01461 -0.0461,-4.61e-4 -0.12231,-0.0051 -0.15,-0.0065 z M 195.24691,122.2808 c -16.4992,4.42096 -27.18783,7.92602 -33.68674,12.16142 -2.11707,1.37923 -3.24735,3.75235 -2.8864,6.05953 a 3.3062106,3.6141831 75 0 0 3.5e-4,0.001 l 3.09098,19.67334 a 3.3062106,3.6141831 75 0 0 3.4e-4,0.001 c 0.61971,3.93638 5.4223,6.1159 9.33029,4.23401 a 3.3062106,3.6141831 75 0 0 0.001,-3.9e-4 c 5.71647,-2.7533 12.63533,-5.25061 20.73147,-7.41997 8.72067,-2.33669 15.09706,-2.50578 18.61064,-1.54147 3.71033,1.01832 5.02584,2.26874 6.12835,6.3834 1.03087,3.84722 -0.0169,6.96067 -5.87832,12.13404 -0.001,0.001 -0.002,0.002 -0.003,0.004 -5.72033,5.00862 -14.29919,9.2834 -26.0007,12.41881 -3.17958,0.85243 -5.33045,3.7874 -4.96831,6.78182 l 0.001,-3.7e-4 2.08634,17.2821 a 3.3062106,3.6141831 75 0 0 -0.001,0.002 c 0.43224,3.57083 4.30574,5.91256 8.09768,4.89715 16.22451,-4.34734 28.55845,-5.36078 36.26475,-3.86008 7.84329,1.5274 11.04983,4.34641 12.78724,10.83052 2.12268,7.92194 -0.33124,14.82317 -9.56887,23.40646 -10e-4,0.001 -0.002,0.003 -0.003,0.004 a 3.3062106,3.6141831 75 0 0 -0.0315,0.0292 c -8.81124,8.29899 -22.57426,15.84068 -41.43952,22.11048 -3.64481,1.2116 -5.56908,5.1447 -4.07935,8.33777 a 3.3062106,3.6141831 75 0 0 3.4e-4,10e-4 l 7.67802,16.44824 a 3.3062106,3.6141831 75 0 0 3.5e-4,0.001 c 1.30396,2.79056 4.79559,4.1486 7.98778,3.10706 30.02355,-9.79263 52.6497,-23.25469 67.22709,-40.80647 a 3.3062106,3.6141831 75 0 0 0.0277,-0.0385 c 12.68037,-15.25469 17.52201,-31.63185 13.27409,-47.48528 -2.82002,-10.52468 -9.11786,-18.99399 -18.47778,-24.48638 l -0.002,-9.1e-4 c 0,0 -0.002,-8.9e-4 -0.002,-8.9e-4 -5.24142,-3.11148 -11.05252,-5.03118 -17.20768,-5.92008 2.45978,-2.72919 4.63041,-5.6958 6.39289,-8.94837 a 3.3062106,3.6141831 75 0 0 0.001,-0.007 c 4.43418,-8.19373 5.76338,-16.81201 3.57018,-24.99701 -2.69768,-10.06802 -9.66114,-17.70895 -19.78635,-21.47264 a 3.3062106,3.6141831 75 0 0 -0.0561,-0.02 c -0.007,-0.005 -0.0185,-0.006 -0.0262,-0.0108 -10.89317,-3.88487 -24.07786,-3.34526 -39.18322,0.70218 z M 304.19875,93.08731 c -16.4992,4.420945 -27.18909,7.92627 -33.68814,12.16178 -2.11635,1.37968 -3.24637,3.75241 -2.88502,6.05916 a 3.3062106,3.6141831 75 0 0 3.7e-4,0.001 l 3.09094,19.67336 a 3.3062106,3.6141831 75 0 0 2.8e-4,0.001 c 0.61956,3.93644 5.42237,6.11591 9.33034,4.23401 a 3.3062106,3.6141831 75 0 0 10e-4,-3.9e-4 c 5.71651,-2.75329 12.63531,-5.25061 20.73152,-7.41997 8.72061,-2.33669 15.09708,-2.50578 18.61055,-1.54147 3.71002,1.01823 5.02436,2.26855 6.12709,6.38377 1.03095,3.84775 -0.0154,6.96041 -5.877,12.13367 -10e-4,10e-4 -0.002,0.002 -0.004,0.004 -5.7203,5.0086 -14.29921,9.28339 -26.00075,12.41881 -3.17946,0.85243 -5.33044,3.78739 -4.96836,6.78183 l 0.002,-3.8e-4 2.08629,17.28209 a 3.3062106,3.6141831 75 0 0 -10e-4,0.002 c 0.43232,3.57076 4.30572,5.91256 8.09767,4.89715 16.22449,-4.34736 28.55835,-5.36077 36.2647,-3.86007 7.84336,1.52737 11.04983,4.3464 12.78718,10.83051 2.12275,7.92195 -0.33078,14.82316 -9.56878,23.40646 -10e-4,9.9e-4 -0.002,0.003 -0.004,0.004 a 3.3062106,3.6141831 75 0 0 -0.0385,0.0308 c -8.81123,8.29901 -22.57428,15.84068 -41.43946,22.11049 -3.64486,1.21162 -5.56914,5.14469 -4.07933,8.33778 a 3.3062106,3.6141831 75 0 0 3e-4,0.001 l 7.67797,16.44826 a 3.3062106,3.6141831 75 0 0 3.9e-4,10e-4 c 1.30411,2.79049 4.79558,4.14859 7.98766,3.10706 30.02363,-9.79264 52.64983,-23.2547 67.22712,-40.80647 a 3.3062106,3.6141831 75 0 0 0.0308,-0.0385 c 12.68041,-15.25451 17.52207,-31.63166 13.27412,-47.48508 -2.82069,-10.52707 -9.12293,-18.99731 -18.48594,-24.48955 -5.23998,-3.11005 -11.04936,-5.02891 -17.2026,-5.91745 2.45983,-2.72961 4.63004,-5.697 6.39263,-8.9496 a 3.3062106,3.6141831 75 0 0 0.001,-0.007 c 4.43419,-8.19374 5.76323,-16.81201 3.57017,-24.99701 -2.69769,-10.06801 -9.6611,-17.708965 -19.78643,-21.472639 a 3.3062106,3.6141831 75 0 0 -0.0539,-0.02 c -0.005,-0.0049 -0.0154,-0.006 -0.0308,-0.01077 -10.89321,-3.884877 -24.07786,-3.345264 -39.18317,0.702172 z m 184.3656,74.06199 c 0,2e-5 0.0769,0.27916 0.14232,0.55278 a 3.3062106,3.6141831 75 0 0 -0.0385,0.11985 c 8e-5,6e-5 -0.10077,-0.6734 -0.10077,-0.67332 z m 0.31078,1.22413 c 0,0 0.0769,-0.0177 0.0769,-0.0177 0.0769,0.19262 0.18769,0.35993 0.28385,0.5404 -0.14154,-0.20832 -0.35539,-0.52255 -0.35539,-0.52255 z" /><g
     id="g88509"
     style="fill:#eaeaea;fill-opacity:1"
     transform="matrix(0.6981368,-0.18706522,0.17112496,0.63864696,-72.578233,-6.6209889)"><path
       id="path88501"
       style="color:#000000;font-weight:bold;font-size:331.547px;font-family:Candara;-inkscape-font-specification:'Candara, Bold';fill:#eaeaea;fill-opacity:1;stroke:none;stroke-width:10;stroke-linecap:butt;stroke-linejoin:miter;stroke-miterlimit:4;stroke-dasharray:none;paint-order:stroke markers fill"
       d="m 168.5,256.71289 c -37.86014,0 -68.20466,11.71118 -89.970703,35.16016 a 4.1447492,4.1447492 0 0 0 -0.0078,0.008 c -21.462105,23.24135 -32.34375,50.974 -32.34375,82.45898 0,29.9409 10.000098,55.86461 29.773438,76.97852 a 4.1447492,4.1447492 0 0 0 0.01563,0.0156 c 20.127114,21.25785 49.634335,31.73047 87.515625,31.73047 17.79473,0 39.55639,-3.365 65.45899,-10.0039 a 4.1447492,4.1447492 0 0 0 3.11328,-4.18946 c -0.86198,-20.57959 -1.29297,-36.94129 -1.29297,-49.03906 0,-16.76551 0.43137,-33.4226 1.29101,-49.9707 a 4.1447492,4.1447492 0 0 0 -4.13867,-4.35938 h -45.81445 a 4.1447492,4.1447492 0 0 0 -4.0957,4.78125 c 2.24063,14.40407 3.34961,27.31385 3.34961,38.70118 0,10.39256 0.7539,20.9768 2.04101,31.69335 -6.25926,0.86258 -11.99746,1.39649 -16.83789,1.39649 -21.16779,0 -37.05585,-7.0699 -48.92773,-21.47852 -11.93617,-14.61732 -17.83399,-31.50463 -17.83399,-51.27343 0,-19.41375 5.30787,-35.39603 15.91797,-48.55665 a 4.1447492,4.1447492 0 0 0 0.01,-0.0117 c 10.37016,-12.9627 25.83864,-19.49024 47.75976,-19.49024 13.03755,0 27.92135,2.14691 44.60547,6.50391 a 4.1447492,4.1447492 0 0 0 5.15039,-3.43555 l 5.3418,-38.20703 a 4.1447492,4.1447492 0 0 0 -3.15235,-4.60742 c -13.66817,-3.2227 -29.30292,-4.80469 -46.92773,-4.80469 z" /><path
       id="path88503"
       style="color:#000000;font-weight:bold;font-size:331.547px;font-family:Candara;-inkscape-font-specification:'Candara, Bold';fill:#eaeaea;fill-opacity:1;stroke:none;stroke-width:10;stroke-linecap:butt;stroke-linejoin:miter;stroke-miterlimit:4;stroke-dasharray:none;paint-order:stroke markers fill"
       d="m 311.77148,298.15625 c -23.47176,0 -38.86704,1.13681 -47.69336,4.28906 a 4.1447492,4.1447492 0 0 0 -2.73242,3.5 l -2.91406,29.95117 a 4.1447492,4.1447492 0 0 0 4.96484,4.45899 c 9.04398,-1.87117 19.51133,-2.82813 31.37696,-2.82813 13.0486,0 22.43038,2.18146 28.11914,5.82227 5.68876,3.64081 8.20898,8.38077 8.20898,15.93555 0,7.84569 -4.28412,14.10114 -14.82031,19.82422 -10.41871,5.61007 -24.2432,8.57031 -41.58203,8.57031 a 4.1447492,4.1447492 0 0 0 -4.10938,3.60937 l -3.40039,26.06446 a 4.1447492,4.1447492 0 0 0 4.10938,4.67968 c 23.69876,0 41.17994,3.26325 52.20117,9.14453 11.02123,5.88129 15.85742,13.6915 15.85742,25.24024 0,14.13435 -7.32867,25.3248 -23.67187,34.78125 a 4.1447492,4.1447492 0 0 0 -0.0254,0.0137 c -15.71639,9.24494 -37.54552,14.95206 -65.51172,16.75977 a 4.1447492,4.1447492 0 0 0 -3.82422,4.79687 l 4.37109,27.03516 a 4.1447492,4.1447492 0 0 0 4.33399,3.47461 c 42.96497,-2.51449 76.96908,-13.136 101.68945,-32.26172 l 0.004,-0.004 c 21.54732,-16.63659 32.85156,-37.04109 32.85156,-60.26172 0,-15.42108 -4.92659,-28.89555 -14.65039,-39.66992 l -0.006,-0.006 c -7.60474,-8.51867 -17.21449,-14.38711 -28.39844,-17.74414 7.29409,-3.57194 13.74978,-8.51222 19.2168,-14.82031 a 4.1447492,4.1447492 0 0 0 0,-0.002 c 8.19749,-9.46753 12.50586,-20.27404 12.50586,-31.85157 0,-14.42996 -5.77752,-26.59022 -16.82031,-35.16601 a 4.1447492,4.1447492 0 0 0 -0.0449,-0.0332 c -11.99078,-9.05186 -28.64477,-13.30273 -49.60547,-13.30273 z" /><path
       id="path88505"
       style="color:#000000;font-weight:bold;font-size:331.547px;font-family:Candara;-inkscape-font-specification:'Candara, Bold';fill:#eaeaea;fill-opacity:1;stroke:none;stroke-width:10;stroke-linecap:butt;stroke-linejoin:miter;stroke-miterlimit:4;stroke-dasharray:none;paint-order:stroke markers fill"
       d="m 467.83203,298.15625 c -23.47176,0 -38.86901,1.13681 -47.69531,4.28906 a 4.1447492,4.1447492 0 0 0 -2.73047,3.5 l -2.91406,29.95117 a 4.1447492,4.1447492 0 0 0 4.96484,4.45899 c 9.04398,-1.87117 19.51133,-2.82813 31.37695,-2.82813 13.04861,0 22.43038,2.18146 28.11914,5.82227 5.68877,3.64081 8.20704,8.38077 8.20704,15.93555 0,7.84569 -4.28217,14.10114 -14.81836,19.82422 -10.4187,5.61007 -24.24321,8.57031 -41.58203,8.57031 a 4.1447492,4.1447492 0 0 0 -4.10938,3.60937 L 423.25,417.35352 a 4.1447492,4.1447492 0 0 0 4.10938,4.67968 c 23.69877,0 41.17993,3.26325 52.20117,9.14453 11.02123,5.88129 15.85742,13.6915 15.85742,25.24024 0,14.13435 -7.32867,25.3248 -23.67188,34.78125 a 4.1447492,4.1447492 0 0 0 -0.0254,0.0137 c -15.71638,9.24494 -37.54552,14.95206 -65.51172,16.75977 a 4.1447492,4.1447492 0 0 0 -3.82421,4.79687 l 4.37109,27.03516 a 4.1447492,4.1447492 0 0 0 4.33398,3.47461 c 42.96498,-2.51449 76.96909,-13.136 101.68946,-32.26172 l 0.004,-0.004 c 21.54732,-16.63659 32.85157,-37.04109 32.85157,-60.26172 0,-15.42752 -4.9322,-28.90698 -14.66407,-39.68359 -7.60302,-8.51366 -17.21128,-14.37832 -28.39062,-17.73438 7.29444,-3.57196 13.74957,-8.51392 19.2168,-14.82226 a 4.1447492,4.1447492 0 0 0 0,-0.002 c 8.19749,-9.46753 12.50585,-20.27404 12.50585,-31.85157 0,-14.42996 -5.77751,-26.59022 -16.82031,-35.16601 a 4.1447492,4.1447492 0 0 0 -0.0449,-0.0332 c -11.99078,-9.05186 -28.64477,-13.30273 -49.60547,-13.30273 z" /><path
       id="path88507"
       style="color:#000000;font-weight:bold;font-size:331.547px;font-family:Candara;-inkscape-font-specification:'Candara, Bold';fill:#eaeaea;fill-opacity:1;stroke:none;stroke-width:10;stroke-linecap:butt;stroke-linejoin:miter;stroke-miterlimit:4;stroke-dasharray:none;paint-order:stroke markers fill"
       d="m 579.37305,259.62695 a 4.1447492,4.1447492 0 0 0 -4.14063,4.35352 c 1.39805,27.63822 2.09961,61.08677 2.09961,100.32226 0,40.85633 -0.69978,77.54933 -2.09961,110.06836 a 4.1447492,4.1447492 0 0 0 4.14063,4.32227 h 45.65234 a 4.1447492,4.1447492 0 0 0 4.14258,-4.26367 c -1.12917,-38.80231 -1.68185,-69.73733 -1.73633,-93.83985 h 0.66992 c 1.38563,0 6.66969,2.79766 13.28321,10.29297 6.61351,7.49531 14.83546,19.05349 24.48046,34.53907 a 4.1447492,4.1447492 0 0 0 0,0.002 c 9.09184,14.57921 15.89736,26.11527 20.37891,34.52148 2.24077,4.20311 3.90084,7.63138 4.95703,10.1875 1.0562,2.55612 1.39649,4.4437 1.39649,4.41602 a 4.1447492,4.1447492 0 0 0 4.14453,4.14453 h 52.9375 a 4.1447492,4.1447492 0 0 0 4.14258,-4.14453 c 0,-2.82462 -0.98708,-4.70897 -2.44532,-7.86133 -1.45823,-3.15236 -3.56598,-7.13113 -6.35156,-12.0332 -5.57071,-9.80336 -13.85194,-23.26481 -24.88086,-40.45703 l -0.002,-0.004 c -11.86931,-18.53543 -22.1733,-33.19543 -30.99024,-44.04492 -7.31285,-8.99868 -13.45199,-15.2461 -19.09961,-19.11914 10.03342,-7.83447 23.79147,-22.22308 42.47657,-44.26953 a 4.1447492,4.1447492 0 0 0 0.002,0 c 9.90881,-11.69565 17.35542,-20.92601 22.39648,-27.78516 2.52054,-3.42957 4.43813,-6.25741 5.79883,-8.59961 1.36071,-2.3422 2.41211,-3.79795 2.41211,-6.60352 a 4.1447492,4.1447492 0 0 0 -4.14453,-4.14453 h -48.24219 a 4.1447492,4.1447492 0 0 0 -4.14453,4.14453 c 0,-0.76272 -0.24304,0.91637 -1.30859,3.03516 -1.06555,2.11879 -2.76138,5.04474 -5.05274,8.67383 -4.58271,7.25817 -11.55005,17.36059 -20.85742,30.21875 a 4.1447492,4.1447492 0 0 0 -0.002,0 c -9.55782,13.20912 -17.30395,23.08628 -23.11133,29.52148 -2.90369,3.21761 -5.337,5.57413 -7.12891,6.9961 -0.72102,0.57217 -1.24774,0.83323 -1.70703,1.07031 0.0641,-24.86044 0.60936,-51.21824 1.72657,-79.35156 a 4.1447492,4.1447492 0 0 0 -4.14063,-4.3086 z" /></g><g
     id="g74717"
     transform="matrix(10.326606,0,0,10.326606,-149.33829,17.385739)"><path
       id="path59797"
       style="fill:#333333;fill-opacity:1;stroke-width:0.121432"
       class="st5"
       d="m 39.686989,34.552733 c 0.16928,1.137444 0.781794,1.805904 1.517749,2.34375 l 0.149045,-0.09961 c 10e-7,0 0.133939,-0.06928 0.342176,-0.195313 0.104117,-0.06301 0.227183,-0.140902 0.361068,-0.230468 0.133886,-0.08957 0.279454,-0.191874 0.428245,-0.304688 0.14879,-0.112814 0.300402,-0.236382 0.449237,-0.36914 0.148834,-0.132758 0.294226,-0.274431 0.428244,-0.423828 0.06701,-0.0747 0.130513,-0.150276 0.191031,-0.228516 0.06052,-0.07824 0.117868,-0.158867 0.170038,-0.240234 0.05217,-0.08137 0.09869,-0.163965 0.140648,-0.248047 0.04196,-0.08408 0.07926,-0.169476 0.10916,-0.25586 0,0 0.03887,0.02108 0.113359,0.05469 0.07449,0.03361 0.184165,0.07916 0.329581,0.130859 0.145415,0.0517 0.326753,0.109775 0.539503,0.164063 0.106374,0.02714 0.219639,0.05324 0.342176,0.07813 0.122537,0.02488 0.254306,0.04768 0.392557,0.06836 0.138252,0.02068 0.283122,0.03819 0.436642,0.05273 0.153518,0.01454 0.314485,0.02674 0.482824,0.0332 0.168338,0.0065 0.344198,0.0075 0.526908,0.0039 0.182709,-0.0036 0.372261,-0.01183 0.568894,-0.02734 0.196633,-0.01551 0.400768,-0.037 0.610877,-0.06641 0.210109,-0.02941 0.425527,-0.06609 0.648665,-0.111328 0.223137,-0.04524 0.452831,-0.0991 0.688549,-0.16211 0.235719,-0.06301 0.478485,-0.136026 0.726336,-0.21875 0,0 0.02942,0.02728 0.09026,0.07227 0.06085,0.04499 0.152807,0.108598 0.275,0.181641 0.122193,0.07304 0.275716,0.154116 0.459733,0.238281 0.09201,0.04208 0.190535,0.08526 0.298092,0.126953 0.107556,0.04169 0.223208,0.08192 0.346374,0.121094 0.123162,0.03918 0.255824,0.07678 0.394656,0.111328 0.138832,0.03455 0.284178,0.06594 0.43874,0.09375 0.154562,0.02781 0.316671,0.05331 0.487023,0.07227 0.170352,0.01895 0.349104,0.03305 0.535306,0.04102 0.186202,0.008 0.381474,0.009 0.583588,0.0039 0.202113,-0.0051 0.411685,-0.01678 0.62977,-0.03711 0.218087,-0.02033 0.443935,-0.04828 0.678054,-0.08594 0.234119,-0.03766 0.476124,-0.08548 0.726336,-0.142578 0.0049,0.374806 0.0081,0.772147 0.02938,1.171875 0.01064,0.199864 0.02645,0.400437 0.04828,0.59961 0.02184,0.199172 0.05041,0.395978 0.08817,0.589843 0.03776,0.193866 0.08434,0.384416 0.142748,0.56836 0.0292,0.09197 0.06131,0.182858 0.09656,0.271484 0.03525,0.08863 0.07356,0.175062 0.115458,0.259766 0.0419,0.0847 0.08732,0.165888 0.13645,0.246094 0.04913,0.0802 0.10258,0.159246 0.159542,0.234374 0.05696,0.07513 0.117255,0.147322 0.182633,0.216797 0.06538,0.06947 0.135535,0.135974 0.209925,0.199219 0.07065,0.06006 0.156059,0.117699 0.254007,0.171875 0.09795,0.05418 0.209163,0.105561 0.329581,0.152344 0.120416,0.04678 0.250311,0.08907 0.388358,0.126953 0.138048,0.03788 0.283703,0.07019 0.434542,0.09766 0.150839,0.02747 0.307238,0.04891 0.46603,0.06445 0.04438,0.0043 0.08959,0.0045 0.134351,0.0078 0.474702,0.08509 0.881748,-0.0061 1.303627,-0.05859 0.398638,-2.251124 1.516589,-4.796599 0.969847,-6.78125 -0.931601,-4.755491 -7.73041,-5.130859 -9.820229,-5.130859 H 51.866744 C 49.185229,21.850699 45.736899,21.124981 45.585828,21.10155 l -1.486243,-0.304676 0.818702,1.171875 c 0.05036,0.0937 0.490453,1.053375 -1.083206,2.365234 -2.807407,2.366032 -2.693253,4.83635 -2.554771,5.679688 -1.53996,1.940217 -1.696057,3.578195 -1.593321,4.539062 z"
       sodipodi:nodetypes="cccsssssssscsssssscssssscsssssssscsssccsssssssssssssccccsccccccc" /><path
       id="path56208"
       style="fill:#d3bc5f;stroke-width:32.5274;stroke-linecap:square;stroke-linejoin:round;paint-order:fill markers stroke"
       d="m 55.972868,40.236327 c -0.07441,-0.0048 -0.150782,-0.01364 -0.224618,-0.01758 -0.267654,-0.01425 -0.530462,-0.02187 -0.789313,-0.02539 -0.258852,-0.0035 -0.511907,-0.0023 -0.759925,0.0039 -0.248016,0.0062 -0.491187,0.01629 -0.726335,0.03125 -0.235148,0.01496 -0.464105,0.03393 -0.684352,0.05664 -0.220245,0.02271 -0.432758,0.04866 -0.636068,0.07813 -0.122555,0.01776 -0.234764,0.03867 -0.350572,0.05859 z" /><path
       id="path42725"
       style="fill:#eaeaea;fill-opacity:1;stroke-width:0.121432"
       class="st6"
       d="m 46.603974,55.173827 v 0.03516 c -5.098658,0.187408 -15.284398,11.003598 -15.284398,11.003598 1.280135,1.375091 2.537694,2.486159 4.228009,3.726533 0,0 6.370176,5.342623 16.574498,5.342623 9.859664,0 16.650157,-5.323423 16.650157,-5.323423 1.702241,-1.287945 3.294448,-2.601964 4.481165,-4.162834 C 70.928302,60.027602 57.356262,54.763675 57.356262,54.763675 l -6.018511,1.664062 -4.721183,-1.230468 z"
       sodipodi:nodetypes="ccccscccccc" /><path
       class="st7"
       d="m 52.131247,53.827233 c -2.480087,0.316252 -4.997941,-0.03514 -5.514102,-0.667643 v 2.038068 l 4.720978,1.229868 6.017673,-1.66325 0.465803,-5.505125 c 0,-0.01171 -3.210265,4.25183 -5.690352,4.568082 z"
       id="path42113"
       style="fill:#ffb19e;fill-opacity:1;stroke:none;stroke-width:0.121432"
       sodipodi:nodetypes="scccccs" /><path
       id="path49910"
       style="fill:#000000;fill-opacity:1;stroke:#000000;stroke-width:0.121432;stroke-opacity:1"
       class="st6"
       d="m 60.780119,41.189452 -0.201526,0.597656 h -1.511451 l -0.791412,1.064453 c -0.453215,5.938508 -8.434696,5.38945 -8.371755,-1.017578 0,0 -0.138788,-0.410144 -0.629772,-0.386718 -0.490983,0.02343 -1.196565,0 -1.196565,0 0,0 -0.377826,0.105634 -0.314885,0.445312 0.113306,0.585651 -0.49131,6.020467 -4.973092,3.935547 0.890712,5.35751 3.789853,7.328088 3.810115,7.341797 l 0.136455,0.105435 c 0.03227,0.03953 -0.0474,-0.03724 0,0 0.0474,0.03724 0.102193,0.07266 0.163741,0.107421 0.06154,0.03476 0.131031,0.06752 0.205725,0.09961 0.0747,0.03209 0.154566,0.06451 0.241412,0.09375 0.173693,0.05847 0.371457,0.11034 0.587786,0.15625 0.216329,0.04591 0.452247,0.08534 0.703245,0.117187 0.250999,0.03184 0.517909,0.056 0.795611,0.07227 0.277702,0.01627 0.566348,0.02426 0.862786,0.02344 0.296438,-8.22e-4 0.599663,-0.0099 0.90687,-0.0293 0.307208,-0.01942 0.617852,-0.04836 0.927863,-0.08789 0.0775,-0.0099 0.156306,-0.02367 0.235114,-0.04102 0.07881,-0.01734 0.15734,-0.0382 0.237214,-0.0625 0.159748,-0.0486 0.322358,-0.112136 0.484924,-0.185547 0.162567,-0.07341 0.325661,-0.157739 0.489122,-0.251953 0.163461,-0.09421 0.326691,-0.197594 0.489123,-0.308593 0.16243,-0.111 0.323346,-0.229746 0.482823,-0.353516 0.159478,-0.12377 0.317729,-0.252239 0.472328,-0.384766 0.154601,-0.132526 0.305639,-0.268982 0.453436,-0.40625 0.147798,-0.137267 0.291272,-0.276068 0.430343,-0.414062 0.278145,-0.275988 0.538724,-0.549883 0.77042,-0.804688 0.231697,-0.254804 0.434723,-0.489905 0.604581,-0.691406 0.339714,-0.403001 0.541602,-0.66699 0.541602,-0.664062 1.372231,-1.183016 1.118894,-2.449219 1.118894,-2.449219 3.147321,0.445095 2.443474,-4.672035 2.380535,-5 -0.06298,-0.327965 -0.541604,-0.621094 -0.541604,-0.621094 z"
       sodipodi:nodetypes="cccccscccccssssssssccsssssssssssccccc" /><path
       id="path56468"
       style="fill:#ffc1ad;fill-opacity:1;stroke:none;stroke-width:0.121432;stroke-opacity:1"
       class="st6"
       d="m 60.780119,41.189452 -0.201526,0.597656 h -1.511451 l -0.791412,1.064453 c -0.453215,5.938508 -8.434696,5.38945 -8.371755,-1.017578 0,0 -0.138788,-0.410144 -0.629772,-0.386718 -0.490983,0.02343 -1.196565,0 -1.196565,0 0,0 -0.377826,0.105634 -0.314885,0.445312 0.113306,0.585651 -0.49131,6.020467 -4.973092,3.935547 0.890712,5.35751 3.789853,7.328088 3.810115,7.341797 l 0.136455,0.105435 c 0.03227,0.03953 -0.0474,-0.03724 0,0 0.0474,0.03724 0.102193,0.07266 0.163741,0.107421 0.06154,0.03476 0.131031,0.06752 0.205725,0.09961 0.0747,0.03209 0.154566,0.06451 0.241412,0.09375 0.173693,0.05847 0.371457,0.11034 0.587786,0.15625 0.216329,0.04591 0.452247,0.08534 0.703245,0.117187 0.250999,0.03184 0.517909,0.056 0.795611,0.07227 0.277702,0.01627 0.566348,0.02426 0.862786,0.02344 0.296438,-8.22e-4 0.599663,-0.0099 0.90687,-0.0293 0.307208,-0.01942 0.617852,-0.04836 0.927863,-0.08789 0.0775,-0.0099 0.156306,-0.02367 0.235114,-0.04102 0.07881,-0.01734 0.15734,-0.0382 0.237214,-0.0625 0.159748,-0.0486 0.322358,-0.112136 0.484924,-0.185547 0.162567,-0.07341 0.325661,-0.157739 0.489122,-0.251953 0.163461,-0.09421 0.326691,-0.197594 0.489123,-0.308593 0.16243,-0.111 0.323346,-0.229746 0.482823,-0.353516 0.159478,-0.12377 0.317729,-0.252239 0.472328,-0.384766 0.154601,-0.132526 0.305639,-0.268982 0.453436,-0.40625 0.147798,-0.137267 0.291272,-0.276068 0.430343,-0.414062 0.278145,-0.275988 0.538724,-0.549883 0.77042,-0.804688 0.231697,-0.254804 0.434723,-0.489905 0.604581,-0.691406 0.339714,-0.403001 0.541602,-0.66699 0.541602,-0.664062 1.372231,-1.183016 1.118894,-2.449219 1.118894,-2.449219 3.147321,0.445095 2.443474,-4.672035 2.380535,-5 -0.06298,-0.327965 -0.541604,-0.621094 -0.541604,-0.621094 z"
       sodipodi:nodetypes="cccccscccccssssssssccsssssssssssccccc" /><path
       class="st7"
       d="m 61.308827,41.79795 c -0.06295,-0.339678 -0.541339,-0.62079 -0.541339,-0.62079 l -1.838033,5.622255 c 3.147318,0.445095 2.442319,-4.661787 2.379372,-5.001465 z"
       id="path32"
       style="fill:#ffb19e;fill-opacity:1;stroke-width:0.121432"
       sodipodi:nodetypes="sccs" /><polygon
       class="st8"
       points="436.4,418.4 402.9,390.9 388.7,390.9 360.2,419.7 355.7,367.1 393.2,377.5 441,363.4 "
       id="polygon42"
       transform="matrix(0.12589273,0,0,0.11713031,1.8370993,12.199121)"
       style="fill:#7a7a7a;fill-opacity:1" /><path
       id="path56470"
       style="fill:#1a1a1a;fill-opacity:1;stroke-width:32.5274;stroke-linecap:square;stroke-linejoin:round;paint-order:fill markers stroke"
       d="m 43.310272,39.921874 c -0.167977,0.0018 -0.331078,0.0058 -0.487023,0.01172 -0.31189,0.01178 -0.595662,0.02945 -0.835497,0.04883 -0.239834,0.01938 -0.435121,0.04119 -0.570992,0.05664 -0.542972,0.141216 -0.457078,0.969605 -0.521135,1.466308 -0.04842,0.478209 -0.06925,0.966904 0.01417,1.440918 0.08774,0.498595 0.272804,0.984375 0.505392,1.440918 0.423119,0.830529 1.374475,1.440918 1.374475,1.440918 0.140056,0.06515 0.276772,0.122984 0.409351,0.173828 0.132579,0.05084 0.260963,0.09552 0.386259,0.132813 0.125297,0.03729 0.247062,0.06731 0.365268,0.0918 0.118205,0.02449 0.232967,0.04224 0.344275,0.05469 0.111307,0.01244 0.218678,0.02033 0.323282,0.02148 0.104601,0.0012 0.206298,-0.0043 0.304389,-0.01367 0.09809,-0.0094 0.193725,-0.02381 0.285497,-0.04297 0.09177,-0.01916 0.178857,-0.04213 0.264504,-0.07031 0.08564,-0.02818 0.170097,-0.0612 0.249809,-0.09766 0.07971,-0.03645 0.154846,-0.07713 0.228816,-0.121094 0.07397,-0.04397 0.145699,-0.09185 0.214122,-0.142578 0.06842,-0.05073 0.13426,-0.103422 0.197329,-0.160156 0.06307,-0.05673 0.122628,-0.117703 0.180535,-0.179688 0.05791,-0.06198 0.115002,-0.124926 0.167939,-0.191406 0.05293,-0.06648 0.102988,-0.136811 0.151144,-0.207031 0.04816,-0.07022 0.09287,-0.141638 0.136451,-0.214844 0.04357,-0.07321 0.08467,-0.14722 0.123854,-0.222656 0.03919,-0.07544 0.07627,-0.151604 0.11126,-0.228516 0.03498,-0.07691 0.06979,-0.154789 0.100764,-0.232422 0.03098,-0.07763 0.0589,-0.154823 0.08607,-0.232422 0.05434,-0.155196 0.100409,-0.310407 0.140649,-0.460937 0.04024,-0.15053 0.07517,-0.297676 0.102859,-0.4375 0.0277,-0.139824 0.04839,-0.271454 0.06508,-0.394531 0.01668,-0.123078 0.02846,-0.237598 0.03568,-0.337891 0.0072,-0.100292 0.0112,-0.186345 0.01053,-0.257812 -7.02e-4,-0.07147 -0.0055,-0.12746 -0.0126,-0.164063 -0.0078,-0.04246 -0.0085,-0.08179 -0.0042,-0.117187 0.0043,-0.0354 0.014,-0.06687 0.02729,-0.0957 0.01328,-0.02884 0.02921,-0.05535 0.04828,-0.07813 0.01907,-0.02278 0.04133,-0.04138 0.06297,-0.05859 0.02165,-0.01722 0.04405,-0.03276 0.06508,-0.04492 0.02103,-0.01216 0.03946,-0.02169 0.05667,-0.0293 0.03444,-0.01521 0.05878,-0.02148 0.05878,-0.02148 0,0 0.175782,0.0049 0.41355,0.0078 0.118883,0.0015 0.253166,0.0031 0.388358,0.002 0.135193,-0.0011 0.271911,-0.0039 0.394656,-0.0098 0.06137,-0.0029 0.117156,7.92e-4 0.167939,0.0098 0.05078,0.009 0.09752,0.02344 0.13855,0.04102 0.04103,0.01758 0.07705,0.03766 0.109161,0.06055 0.0321,0.02289 0.05995,0.04932 0.08397,0.07422 0.02402,0.0249 0.04411,0.04865 0.06088,0.07227 0.01677,0.02362 0.02955,0.04541 0.03989,0.06445 0.02068,0.03809 0.02938,0.06445 0.02938,0.06445 -9.83e-4,0.10011 -7.87e-4,0.199628 0.0022,0.296875 0.0029,0.09725 0.0081,0.19273 0.01469,0.28711 0.0067,0.09438 0.01493,0.187789 0.02519,0.279297 0.01032,0.09151 0.0219,0.180901 0.03568,0.269531 0.01378,0.08863 0.03112,0.175971 0.04828,0.261719 0.01717,0.08575 0.03414,0.169091 0.05458,0.251953 0.02044,0.08286 0.04357,0.164171 0.06717,0.24414 0.0236,0.07997 0.04894,0.159255 0.07557,0.236329 0.02663,0.07707 0.05442,0.15239 0.08398,0.226562 0.02956,0.07417 0.06001,0.147484 0.09237,0.21875 0.03235,0.07127 0.06573,0.140629 0.100763,0.208984 0.03504,0.06836 0.07156,0.135732 0.109161,0.201172 0.0376,0.06544 0.07752,0.128887 0.117558,0.191406 0.04004,0.06252 0.08149,0.124 0.123854,0.183594 0.04237,0.0596 0.08559,0.117164 0.130153,0.173828 0.04457,0.05667 0.0898,0.112286 0.13645,0.166016 0.09332,0.107459 0.19085,0.208996 0.291795,0.304688 0.100946,0.09569 0.205159,0.185646 0.312785,0.269531 0.107628,0.08389 0.218322,0.162335 0.33168,0.234375 0.113358,0.07204 0.230334,0.137109 0.348474,0.197265 0.118138,0.06016 0.236998,0.113875 0.358969,0.16211 0.12197,0.04823 0.246714,0.09068 0.371565,0.126953 0.12485,0.03628 0.251081,0.06752 0.377863,0.0918 0.12678,0.02428 0.254301,0.04245 0.38206,0.05469 0.12776,0.01224 0.256372,0.01741 0.38416,0.01758 0.127789,1.64e-4 0.255195,-0.0056 0.382062,-0.01758 0.126867,-0.01195 0.252868,-0.02863 0.377863,-0.05273 0.124994,-0.0241 0.247293,-0.0555 0.369466,-0.0918 0.122171,-0.03629 0.242669,-0.07843 0.361068,-0.126953 0.118399,-0.04852 0.234797,-0.103273 0.348473,-0.164063 0.113675,-0.06079 0.225777,-0.128076 0.333779,-0.201171 0.054,-0.03655 0.107137,-0.07365 0.159542,-0.113282 0.05241,-0.03963 0.104654,-0.08033 0.155343,-0.123047 0.05069,-0.04272 0.100194,-0.087 0.149046,-0.132812 0.04885,-0.04581 0.09585,-0.09367 0.142748,-0.142578 0.04691,-0.04891 0.09372,-0.10033 0.13855,-0.152344 0.04483,-0.05201 0.08751,-0.105034 0.130153,-0.160156 0.04264,-0.05512 0.08563,-0.111688 0.125953,-0.169922 0.04033,-0.05823 0.07756,-0.118336 0.115458,-0.179688 0.0379,-0.06135 0.0759,-0.123026 0.11126,-0.1875 0.03535,-0.06447 0.06808,-0.131618 0.100764,-0.199218 0.03269,-0.0676 0.06456,-0.136299 0.09446,-0.207032 0.0299,-0.07073 0.05907,-0.142927 0.08607,-0.216797 0.027,-0.07387 0.0516,-0.149552 0.07557,-0.226562 0.02398,-0.07701 0.04635,-0.156172 0.06718,-0.236328 0.02083,-0.08016 0.04121,-0.160833 0.05878,-0.244141 0.01757,-0.08331 0.03199,-0.169396 0.04619,-0.255859 0.0142,-0.08646 0.02708,-0.174048 0.03779,-0.263672 0.01075,-0.08962 0.02021,-0.180648 0.02729,-0.273438 l 0.791413,-1.064453 h 1.505153 l 0.195228,-0.597656 c -0.138875,-0.04978 -0.277895,-0.09704 -0.417747,-0.142578 -0.139853,-0.04554 -0.281371,-0.08943 -0.421948,-0.130859 -0.140575,-0.04143 -0.280901,-0.0817 -0.421946,-0.119141 -0.141045,-0.03744 -0.282786,-0.0719 -0.424046,-0.105469 -0.14126,-0.03357 -0.280726,-0.06587 -0.421946,-0.0957 -0.14122,-0.02983 -0.283119,-0.05777 -0.424046,-0.08398 -0.281853,-0.05243 -0.56264,-0.09801 -0.841793,-0.136719 -0.279154,-0.03871 -0.556878,-0.06972 -0.831299,-0.0957 -0.27442,-0.02598 -0.546851,-0.04629 -0.814503,-0.06055 -0.267653,-0.01425 -0.530461,-0.02187 -0.789313,-0.02539 -0.258852,-0.0035 -0.511907,-0.0023 -0.759924,0.0039 -0.248017,0.0062 -0.491187,0.01628 -0.726336,0.03125 -0.235148,0.01496 -0.464105,0.03393 -0.684352,0.05664 -0.220245,0.02271 -0.432758,0.04865 -0.636067,0.07813 -0.203312,0.02947 -0.397149,0.06243 -0.581489,0.09766 -0.184341,0.03523 -0.357273,0.07329 -0.520611,0.113281 -0.163338,0.03999 -0.317333,0.08319 -0.457633,0.126953 -0.140301,0.04376 -0.266832,0.08823 -0.382062,0.134766 -0.115229,0.04654 -0.218363,0.09426 -0.306488,0.142578 h -2.292367 c -0.04839,-0.04978 -0.100742,-0.09714 -0.155343,-0.142578 -0.0546,-0.04543 -0.111816,-0.08959 -0.172137,-0.13086 -0.06032,-0.04127 -0.123392,-0.07991 -0.188933,-0.117187 -0.06554,-0.03728 -0.133365,-0.072 -0.203625,-0.105469 -0.07026,-0.03347 -0.14174,-0.06586 -0.216222,-0.0957 -0.07448,-0.02985 -0.152712,-0.05759 -0.230915,-0.08398 -0.0782,-0.0264 -0.157885,-0.05109 -0.239314,-0.07422 -0.08143,-0.02313 -0.163556,-0.04441 -0.247709,-0.06445 -0.168308,-0.04009 -0.342293,-0.07469 -0.518512,-0.103515 -0.176218,-0.02883 -0.355165,-0.05131 -0.535305,-0.07031 -0.18014,-0.019 -0.361529,-0.0343 -0.541603,-0.04492 -0.180075,-0.01062 -0.359286,-0.01781 -0.535305,-0.02148 -0.176021,-0.0037 -0.348436,-0.0038 -0.516413,-0.002 z"
       sodipodi:nodetypes="ccsccascssssccssssssssssssssssscccssssssccscssssssccccsssssssssssssssssssssscssssssssssssssssssssscccccssssssssscssssssssccsssssssssssccc" /><path
       class="st9"
       d="m 41.417775,42.875549 c 0,0 -0.465803,-2.448023 1.498123,-2.448023 1.963927,0 4.242586,0.140556 4.242586,1.616398 0,1.475842 -0.251786,3.982431 -2.895534,3.759883 -2.643746,-0.222548 -2.845175,-2.928258 -2.845175,-2.928258 z"
       id="path46"
       style="fill:#5a5a5a;fill-opacity:1;stroke-width:0.121432"
       sodipodi:nodetypes="csssc" /><path
       class="st9"
       d="m 50.557588,41.973646 c 0,0 0.138481,-0.890191 1.661784,-1.147877 1.661784,-0.292826 5.690351,-0.585652 5.413387,1.991215 0,0 0.214018,3.900439 -3.80196,3.572474 -3.789371,-0.316251 -3.273211,-4.415812 -3.273211,-4.415812 z"
       id="path48"
       style="fill:#5a5a5a;fill-opacity:1;stroke-width:0.121432"
       sodipodi:nodetypes="ccccc" /><ellipse
       class="st9"
       cx="58.425884"
       cy="41.352856"
       rx="0.59169585"
       ry="0.15226939"
       id="ellipse52"
       style="fill:#ff6600;fill-opacity:1;stroke-width:0.121432" /><path
       id="rect39691"
       style="fill:#fefefe;fill-opacity:1;stroke-width:32.5274;stroke-linecap:square;stroke-linejoin:round;paint-order:fill markers stroke"
       d="m 48.077638,40.978516 h 1.196565 v 0.468749 c -0.387932,0.01524 -0.786244,0.016 -1.196565,0 z"
       sodipodi:nodetypes="ccccc" /><path
       id="path59705"
       style="fill:#ffc1ad;fill-opacity:1;stroke:none;stroke-width:0.121432;stroke-opacity:1"
       class="st6"
       d="m 43.97363,34.30078 c -0.478392,1.382138 -2.619845,2.496094 -2.619847,2.496094 l -0.149045,0.09961 v 2.089844 1.164062 c 0,0 4.858389,-0.764846 6.40687,0.828126 h 2.292367 c 1.409999,-0.77306 6.419536,-1.382035 10.863547,0.210937 l 0.07556,-1.171875 c -1.228995,0.234359 -2.745359,-0.08203 -3.310494,-0.5625 -1.190239,-1.011921 -1.189244,-2.858198 -1.209161,-4.357422 -4.003389,0.913616 -5.942939,-0.796875 -5.942939,-0.796875 -3.965621,1.323573 -6.406871,0 -6.406871,0 z"
       sodipodi:nodetypes="cccccccccscccc" /></g><g
     aria-label="CRAFT"
     id="text14297"
     style="font-size:54.8571px;line-height:1.25;stroke-width:1.37142"
     transform="matrix(1.1891478,0,0,0.91491786,-83.659964,96.443081)"
     inkscape:path-effect="#path-effect18856"><path
       d="m 304.33779,698.34758 c 0.31177,-2.41885 0.57618,-4.82546 0.79322,-7.21984 6.65589,-1.31977 13.34207,-2.58097 20.0567,-3.75226 -0.10317,2.48001 -0.23423,4.96607 -0.39316,7.4582 -6.83007,1.11505 -13.64858,2.29836 -20.45676,3.5139 z m 20.84992,-10.9721 c 0.10318,-2.48001 0.17848,-4.95396 0.2259,-7.42185 2.21168,-0.41263 4.42807,-0.81264 6.64897,-1.19905 -0.0282,2.48914 -0.0785,4.98271 -0.15082,7.48073 -2.24447,0.3693 -4.48584,0.74974 -6.72405,1.14017 z m -26.70241,5.09038 c 1.31441,-11.77076 1.26525,-23.1732 -0.14748,-34.2073 2.1559,-0.73402 4.32173,-1.44385 6.49684,-2.12922 1.28279,11.36036 1.38158,23.02649 0.29635,34.9984 -2.21862,0.43992 -4.43389,0.88635 -6.64571,1.33812 z m 26.60238,-34.55976 c -0.11985,-2.43155 -0.26757,-4.85704 -0.44317,-7.27648 2.22517,-0.53592 4.45773,-1.04649 6.69705,-1.53141 0.14837,2.45358 0.27467,4.91162 0.3789,7.37409 -2.21781,0.45579 -4.42891,0.93388 -6.63278,1.4338 z m -20.25302,-1.77676 c -0.25656,-2.27207 -0.56048,-4.53191 -0.91176,-6.77952 6.62543,-2.24641 13.33586,-4.23426 20.11116,-5.96035 0.23136,2.40733 0.43484,4.82071 0.61045,7.24015 -6.67552,1.60775 -13.2845,3.44363 -19.80985,5.49972 z"
       style="font-family:Minecraft;-inkscape-font-specification:Minecraft"
       id="path16381"
       inkscape:original-d="m 304.57863,700.20001 v -6.85714 h 20.57142 v 6.85714 z m 20.57142,-6.85714 v -6.85713 h 6.85713 v 6.85713 z m -27.42855,0 v -34.28568 h 6.85713 v 34.28568 z m 27.42855,-27.42855 v -6.85713 h 6.85713 v 6.85713 z m -20.57142,-6.85713 v -6.85714 h 20.57142 v 6.85714 z" /><path
       d="m 365.9234,689.25078 c -0.16849,-10.09671 -0.3082,-20.19813 -0.41912,-30.30425 2.26068,-0.22189 4.52565,-0.42139 6.79451,-0.59788 0.0815,10.09332 0.25168,20.17744 0.51051,30.25236 -2.29689,0.20011 -4.59217,0.41714 -6.8859,0.64977 z m -0.49692,-37.88473 c -0.0241,-2.52712 -0.0465,-5.05453 -0.067,-7.58223 2.29113,-0.22122 4.58585,-0.41533 6.88354,-0.58205 -0.002,2.52563 0.002,5.05068 0.0113,7.57516 -2.2797,0.17143 -4.55581,0.36796 -6.8278,0.58912 z m -26.95603,41.33922 c 0.54545,-17.62219 0.27703,-35.09486 -0.80526,-52.41801 9.13713,-1.83418 18.36573,-3.19921 27.63808,-4.08745 0.0169,2.5283 0.0357,5.0563 0.0562,7.58401 -6.87337,0.66365 -13.71435,1.57122 -20.50588,2.71482 0.0949,2.50153 0.1783,5.00493 0.25021,7.51022 6.72781,-1.09421 13.50671,-1.97934 20.32267,-2.64281 0.0241,2.52712 0.0501,5.05395 0.0778,7.58048 -6.78204,0.66564 -13.52543,1.53268 -20.21921,2.58385 0.19572,10.03621 0.20757,20.10253 0.0356,30.19897 -2.28481,0.31416 -4.56819,0.63992 -6.85019,0.97592 z"
       style="font-family:Minecraft;-inkscape-font-specification:Minecraft"
       id="path16383"
       inkscape:original-d="m 366.29287,700.20001 v -27.42855 h 6.85714 v 27.42855 z m 0,-34.28569 v -6.85713 h 6.85714 v 6.85713 z m -27.42855,34.28569 v -47.99996 h 27.42855 v 6.85714 h -20.57141 v 6.85713 h 20.57141 v 6.85714 h -20.57141 v 27.42855 z" /><path
       d="m 379.70481,688.0528 c -0.50864,-15.06674 -0.69546,-30.1563 -0.56046,-45.2687 2.30298,-0.11164 4.6083,-0.19558 6.91532,-0.25155 -0.0414,2.50736 -0.0707,5.01425 -0.0881,7.52066 1.48077,-0.0447 2.96262,-0.0785 4.44539,-0.10138 4.35853,-0.067 8.721,-0.0353 13.08261,0.0966 1.0501,0.03 2.10043,0.0658 3.15096,0.10715 0.0471,-2.45374 0.11329,-4.90651 0.19864,-7.35832 2.31157,0.11355 4.62252,0.25476 6.93273,0.42233 -0.55847,14.56783 -0.38212,29.19572 0.52905,43.88367 -2.31046,-0.0456 -4.6212,-0.0684 -6.93163,-0.0689 -0.577,-9.85369 -0.84788,-19.69188 -0.81263,-29.51459 -1.04829,-0.0317 -2.09615,-0.058 -3.14356,-0.0786 -4.34854,-0.0946 -8.69663,-0.0933 -13.03958,0.002 -1.47727,0.0324 -2.95336,0.0752 -4.42817,0.12805 0.0264,10.02191 0.24468,20.03628 0.65485,30.04311 -2.30347,0.12706 -4.60525,0.27372 -6.90538,0.43864 z m 6.35486,-45.52025 c 0.0414,-2.50736 0.0948,-5.01519 0.16011,-7.52349 1.50389,-0.0273 3.00798,-0.0419 4.51208,-0.044 4.4183,-0.006 8.83695,0.0965 13.2509,0.30867 1.06053,0.0511 2.12046,0.10816 3.1798,0.17104 -0.12361,2.44987 -0.22809,4.90071 -0.31343,7.35252 -1.05422,-0.0518 -2.10857,-0.0978 -3.16304,-0.13796 -4.38342,-0.17116 -8.76941,-0.23745 -13.15305,-0.20014 -1.49172,0.0127 -2.9829,0.0372 -4.47337,0.0734 z"
       style="font-family:Minecraft;-inkscape-font-specification:Minecraft"
       id="path16385"
       inkscape:original-d="m 380.00715,700.20001 v -41.14282 h 6.85714 v 6.85713 h 20.57141 v -6.85713 h 6.85714 v 41.14282 h -6.85714 v -27.42855 h -20.57141 v 27.42855 z m 6.85714,-41.14282 v -6.85714 h 20.57141 v 6.85714 z" /><path
       d="m 421.2408,687.30908 c -1.09239,-17.01262 -1.15107,-33.91738 -0.17603,-50.71428 11.55625,1.21657 23.03996,3.05185 34.44937,5.30454 -0.0986,2.29771 -0.18167,4.59776 -0.24909,6.90017 -9.19139,-1.74688 -18.40401,-3.19769 -27.63153,-4.2687 -0.0976,2.38038 -0.17396,4.76332 -0.22916,7.14882 4.61582,0.48973 9.23348,1.07614 13.8515,1.75117 -0.0494,2.3425 -0.0792,4.68778 -0.0895,7.03586 -4.62495,-0.63491 -9.24702,-1.17773 -13.86408,-1.6228 -0.0513,9.56256 0.23634,19.16618 0.86298,28.81085 -2.30686,-0.13885 -4.61523,-0.2539 -6.92449,-0.34563 z"
       style="font-family:Minecraft;-inkscape-font-specification:Minecraft"
       id="path16387"
       inkscape:original-d="m 421.14998,700.20001 v -47.99996 h 34.28569 v 6.85714 h -27.42855 v 6.85713 h 13.71427 v 6.85714 h -13.71427 v 27.42855 z" /><path
       d="m 476.17938,694.24355 c -0.27694,-13.69816 -0.36767,-27.38126 -0.2722,-41.04929 -4.57799,-1.07194 -9.16248,-2.08556 -13.75268,-3.0304 0.0527,-2.29001 0.11817,-4.57816 0.19634,-6.86443 11.37962,2.41159 22.68458,5.20033 33.91314,8.16491 0.0765,2.30699 0.1424,4.61096 0.19769,6.91191 -4.55674,-1.22333 -9.12116,-2.40404 -13.69247,-3.53167 0.0352,13.67753 0.0886,27.33489 0.16024,40.9721 -2.24385,-0.55205 -4.49408,-1.07626 -6.75006,-1.57313 z"
       style="font-family:Minecraft;-inkscape-font-specification:Minecraft"
       id="path16389"
       inkscape:original-d="M 476.00708,700.20001 V 659.05719 H 462.2928 v -6.85714 h 34.28569 v 6.85714 h -13.71428 v 41.14282 z" /></g></g></svg>
